<svg version="1.1" id="Layer_1" xmlns="http://www.w3.org/2000/svg" xmlns:xlink="http://www.w3.org/1999/xlink" x="0px" y="0px"
	 width="100%" viewBox="0 0 350 350" enable-background="new 0 0 350 350" xml:space="preserve">
<path fill="#000000" opacity="1.000000" stroke="none" 
	d="
M235.000000,351.000000 
	C156.666687,351.000000 78.833359,351.000000 1.000031,351.000000 
	C1.000021,234.333374 1.000021,117.666733 1.000010,1.000078 
	C117.666618,1.000052 234.333237,1.000052 350.999878,1.000026 
	C350.999939,117.666588 350.999939,234.333176 350.999969,350.999878 
	C312.500000,351.000000 274.000000,351.000000 235.000000,351.000000 
M135.993149,251.002930 
	C135.993149,251.002930 135.912491,251.024094 136.109848,251.556259 
	C136.773819,251.727692 137.437775,251.899139 138.642044,252.173004 
	C139.082108,252.487579 139.522186,252.802155 140.274857,253.707031 
	C142.139557,254.817886 144.004272,255.928726 146.181091,257.692871 
	C159.066803,263.600586 171.676514,270.232239 186.746979,265.079071 
	C197.525055,261.393646 208.298431,257.973938 217.150238,249.359589 
	C220.119598,246.249985 223.088959,243.140381 226.663376,239.769440 
	C227.800430,238.203812 228.937485,236.638168 230.718521,234.785873 
	C234.082153,226.518280 237.445786,218.250687 241.102585,209.370071 
	C242.425385,207.602356 243.748184,205.834656 245.562195,203.923340 
	C245.729095,203.637421 245.896011,203.351486 246.704758,202.975784 
	C247.494629,202.343948 248.284500,201.712112 249.812897,200.980682 
	C252.918121,199.669342 255.944931,198.106339 259.147797,197.108368 
	C263.456421,195.765884 264.444641,194.075409 261.234650,191.000809 
	C257.038544,186.981674 252.105820,183.733521 247.508270,180.130371 
	C246.217682,179.118912 244.991272,178.025574 243.900436,176.110703 
	C243.869858,174.072021 243.839294,172.033325 243.918579,169.469131 
	C243.634354,169.268326 243.350113,169.067505 243.017944,167.992172 
	C242.860901,159.642044 241.195084,151.747284 236.043701,144.974594 
	C236.043701,144.974594 236.115250,144.967010 236.020203,144.265991 
	C235.031311,142.819885 234.042419,141.373779 233.015915,139.996307 
	C233.015915,139.996307 233.082520,139.955200 233.012970,139.272842 
	C231.687393,137.820938 230.361816,136.369049 229.021942,134.984467 
	C229.021942,134.984467 229.088211,134.965897 228.994064,134.270996 
	C227.339417,132.818512 225.684753,131.366028 224.015137,129.983154 
	C224.015137,129.983154 224.085464,129.994370 223.932526,129.460739 
	C223.623230,129.280624 223.313950,129.100525 223.010300,128.986969 
	C223.010300,128.986969 223.072433,128.962494 222.827927,128.322739 
	C221.484573,127.606155 220.141220,126.889580 218.552673,126.027710 
	C218.552673,126.027710 218.269257,126.057907 217.945236,125.447227 
	C217.288696,125.654152 216.632141,125.861076 215.440063,126.113800 
	C215.262497,126.090004 215.084915,126.066216 214.705887,125.370789 
	C211.106537,121.573563 209.467987,117.209763 210.995026,111.545166 
	C210.995026,111.545166 211.051804,111.088181 211.751038,110.972580 
	C214.568787,108.810112 217.386536,106.647652 220.880676,103.966110 
	C218.721832,102.091034 217.199341,100.138611 215.200302,99.143692 
	C207.407700,95.265305 199.113632,95.096878 190.743347,96.734680 
	C187.883804,97.294197 185.879654,97.243813 184.332687,94.095963 
	C183.155533,91.700600 180.810638,89.879097 178.895752,87.398117 
	C178.737915,87.136177 178.506104,87.007187 177.998581,86.511658 
	C177.587952,86.166496 177.177322,85.821342 176.704239,85.233528 
	C176.704239,85.233528 176.456482,85.196037 176.086884,84.677094 
	C173.738953,83.083336 171.391022,81.489586 169.021133,79.966324 
	C169.021133,79.966324 169.091431,79.943718 168.811722,79.287987 
	C159.405502,72.987701 148.809341,71.328484 137.880051,72.226135 
	C133.700455,72.569420 129.531387,74.522476 125.664841,76.381256 
	C124.336708,77.019745 120.685875,79.372841 125.275421,81.730080 
	C125.275421,81.730080 125.561722,81.777283 125.945297,82.320724 
	C133.806534,86.110046 139.291779,92.181602 143.021851,100.801773 
	C146.044479,109.015968 145.380035,117.064911 142.004822,124.997475 
	C142.004822,124.997475 142.007034,124.929916 141.136261,125.003227 
	C140.054886,124.796936 138.981934,124.503334 137.890808,124.398140 
	C128.888153,123.530220 119.988083,123.073975 113.294586,131.284653 
	C113.294586,131.284653 113.242226,131.505707 112.645134,131.893585 
	C111.692139,133.031891 110.739143,134.170181 109.679840,135.435455 
	C113.004906,136.093903 115.495758,136.587158 117.994148,137.014145 
	C117.994148,137.014145 117.928139,137.023605 118.184814,137.693604 
	C123.444214,141.075302 122.719032,149.022812 119.952965,153.616989 
	C115.415962,161.152527 112.553474,169.331757 110.287270,178.238098 
	C106.624550,180.288422 102.961830,182.338760 98.795601,184.785950 
	C97.576408,185.831802 96.357216,186.877655 94.880913,188.586639 
	C93.197739,190.737854 91.514565,192.889084 90.017212,195.798615 
	C92.060097,196.479050 94.102982,197.159500 96.457947,197.983932 
	C96.457947,197.983932 96.801628,197.987076 97.158585,198.623734 
	C99.579041,200.000717 101.999504,201.377686 104.821190,203.227448 
	C106.193024,204.504074 107.564857,205.780716 109.027878,207.805405 
	C110.375198,211.593597 111.451286,215.507553 113.135208,219.139694 
	C115.494476,224.228500 118.306297,229.107498 121.012321,234.527985 
	C121.012321,234.527985 121.160240,234.963837 121.183144,235.643616 
	C123.101707,237.806137 125.020271,239.968658 126.940300,242.043625 
	C126.940300,242.043625 126.852875,242.049149 127.004387,242.735443 
	C128.987289,244.532364 130.970200,246.329300 132.978653,248.056885 
	C132.978653,248.056885 132.907959,248.035370 133.101913,248.611008 
	C133.727173,249.104935 134.352432,249.598862 134.998077,250.008179 
	C134.998077,250.008179 134.913330,249.988373 135.089691,250.516846 
	C135.397705,250.705811 135.705734,250.894760 135.993149,251.002930 
z"/>
<path fill="#0DF5F5" opacity="1.000000" stroke="none" 
	d="
M211.051804,111.088181 
	C211.051804,111.088181 210.995026,111.545166 210.613129,111.991631 
	C207.366364,118.505707 209.589294,124.972931 214.907349,126.042419 
	C215.084915,126.066216 215.262497,126.090004 216.089661,126.114258 
	C217.249252,126.095772 217.759262,126.076843 218.269257,126.057907 
	C218.269257,126.057907 218.552673,126.027710 218.794800,126.432373 
	C220.382095,127.545525 221.727264,128.254013 223.072433,128.962494 
	C223.072433,128.962494 223.010300,128.986969 223.114044,129.197479 
	C223.507019,129.603439 223.796234,129.798904 224.085464,129.994370 
	C224.085464,129.994370 224.015137,129.983154 224.043777,130.297913 
	C225.744354,132.063751 227.416275,133.514816 229.088211,134.965897 
	C229.088211,134.965897 229.021942,134.984467 229.028748,135.313110 
	C230.384521,137.079590 231.733521,138.517395 233.082520,139.955200 
	C233.082520,139.955200 233.015915,139.996307 232.977051,140.331818 
	C233.997192,142.100555 235.056229,143.533783 236.115265,144.967010 
	C236.115250,144.967010 236.043701,144.974594 236.014893,145.336716 
	C236.344101,147.131882 236.719681,148.560806 237.057144,149.998688 
	C238.698776,156.993073 240.330231,163.989838 241.583191,171.005493 
	C239.449081,171.368927 237.697083,171.712646 235.923782,171.653549 
	C234.980270,168.486145 234.058060,165.721573 233.077560,162.575775 
	C232.641556,160.477249 232.263840,158.759933 231.954056,156.716766 
	C231.633286,155.294266 231.244583,154.197601 230.914032,153.065826 
	C230.972183,153.030701 230.880188,153.130707 230.913666,152.775299 
	C230.450043,151.738953 229.952942,151.057999 229.469330,150.287827 
	C229.482819,150.198608 229.514191,150.376328 229.534988,150.105133 
	C229.315796,149.580887 229.075790,149.327805 228.877777,149.073700 
	C228.919739,149.072662 228.874313,149.143280 228.914093,148.775482 
	C227.951996,147.222748 226.950134,146.037811 225.855560,144.832153 
	C225.762848,144.811447 225.765091,144.621460 225.799896,144.241531 
	C224.294052,141.717911 222.753403,139.574203 221.172684,137.374756 
	C219.418900,138.676224 218.304962,139.502853 217.502045,140.098694 
	C215.618088,138.383789 214.038315,136.945786 212.479263,135.487274 
	C212.499969,135.466797 212.459320,135.425064 212.471283,135.149414 
	C212.200348,134.669449 211.917435,134.465118 211.687164,134.246338 
	C211.739792,134.231903 211.735886,134.340988 211.666382,134.069092 
	C211.282684,133.619904 210.968506,133.442627 210.701553,133.251251 
	C210.748795,133.237167 210.744354,133.335663 210.670013,133.067978 
	C210.284927,132.624649 209.974213,132.448990 209.708832,132.267212 
	C209.754181,132.261093 209.726578,132.348358 209.689209,132.087357 
	C209.235397,131.568970 208.818939,131.311600 208.106995,130.856079 
	C205.483917,127.107010 203.156311,123.556084 200.910400,119.570755 
	C201.556290,115.602051 202.120453,112.067757 202.878632,108.425148 
	C203.311661,108.117218 203.456451,107.863770 203.750549,107.420944 
	C204.333221,106.859276 204.672363,106.433144 205.210297,105.917160 
	C205.489426,105.705856 205.662750,105.549698 205.632782,105.469421 
	C205.540497,105.222244 205.370483,105.004082 204.894348,104.513680 
	C199.953644,104.690971 195.349258,105.129242 190.532532,105.581261 
	C190.320190,105.595009 190.024170,105.900764 189.667969,105.946228 
	C187.033569,107.315231 184.755371,108.638763 182.113358,110.173660 
	C178.892303,101.046028 174.462036,92.762680 166.161392,87.335693 
	C158.068695,82.044685 149.212982,79.842545 138.928146,80.398628 
	C154.980270,101.473289 156.595566,121.917183 143.714111,135.885941 
	C138.078278,132.405228 132.215637,129.642715 124.935577,133.020538 
	C129.617004,137.566589 130.685959,142.869431 129.639893,148.470642 
	C128.833160,152.790283 127.245895,156.964127 125.698730,161.324341 
	C124.613113,163.297333 123.834435,165.148773 122.937057,167.101791 
	C122.818352,167.203354 122.860046,167.513000 122.633339,167.737000 
	C121.956749,168.652908 121.506859,169.344818 120.730392,170.080200 
	C119.045013,171.024185 117.686226,171.924728 116.357735,172.805206 
	C115.847473,172.167374 115.364693,171.563889 114.933647,170.675598 
	C115.282486,169.906403 115.579590,169.422043 116.083092,168.805389 
	C116.196053,168.135452 116.102623,167.597824 116.060799,166.699402 
	C117.742897,162.885040 119.697983,159.541641 120.917305,155.948563 
	C122.277824,151.939438 123.500694,147.739899 123.787750,143.554932 
	C124.024162,140.108109 122.309189,137.019516 117.928139,137.023605 
	C117.928139,137.023605 117.994148,137.014145 117.891701,136.689392 
	C116.273575,134.744995 114.757904,133.125351 113.242233,131.505707 
	C113.242226,131.505707 113.294586,131.284653 113.756134,131.398560 
	C114.981377,131.291870 115.914803,131.280167 116.482796,130.818665 
	C122.941429,125.571167 130.077057,123.699898 138.252533,125.909904 
	C139.336502,126.202927 140.747498,125.286316 142.007034,124.929916 
	C142.007034,124.929916 142.004822,124.997475 142.357635,124.981857 
	C143.686493,123.457352 145.480087,121.958061 145.497925,120.437904 
	C145.577820,113.636047 145.151627,106.828255 144.774292,99.702164 
	C143.543915,97.174255 142.818176,94.656319 141.279694,92.818893 
	C137.061066,87.780548 133.226959,81.984268 125.561722,81.777283 
	C125.561722,81.777283 125.275421,81.730080 125.456177,81.246201 
	C128.421600,78.670036 130.962479,75.316734 134.036713,74.722458 
	C143.178421,72.955284 152.423660,72.938904 161.167725,77.316498 
	C163.630188,78.549301 166.440613,79.087128 169.091431,79.943718 
	C169.091431,79.943718 169.021133,79.966324 169.084229,80.272224 
	C171.583725,82.117432 174.020096,83.656738 176.456482,85.196037 
	C176.456482,85.196037 176.704239,85.233528 176.719147,85.663101 
	C177.222794,86.398842 177.711548,86.704994 178.200302,87.011154 
	C178.506104,87.007187 178.737915,87.136177 178.941803,87.982666 
	C180.247589,90.862236 181.582703,93.119720 182.748810,95.461365 
	C184.367966,98.712715 186.803970,99.596199 190.179077,98.444153 
	C191.589615,97.962685 193.059708,97.592506 194.532639,97.367401 
	C203.065460,96.063354 210.649017,98.213684 217.468262,103.042923 
	C215.041412,106.085815 213.046616,108.586998 211.051804,111.088181 
z"/>
<path fill="#16A0B4" opacity="1.000000" stroke="none" 
	d="
M145.868973,257.039581 
	C144.004272,255.928726 142.139557,254.817886 140.196655,253.084991 
	C141.439941,251.771988 142.769211,251.095444 144.080673,250.385971 
	C145.387222,249.679138 146.675903,248.939285 148.353485,248.156494 
	C152.160263,248.739578 155.585968,249.380096 159.240295,249.960510 
	C159.610794,249.652542 159.779510,249.414200 159.873749,249.149368 
	C159.894501,249.091049 159.655258,248.933517 159.528610,248.830414 
	C154.687881,244.888077 149.846298,240.946762 145.369568,237.056244 
	C147.857422,237.715485 149.980576,238.323776 152.518005,238.951492 
	C154.043243,239.190598 155.147293,239.457138 156.266342,239.621918 
	C161.297104,240.362640 166.527344,242.858475 171.338165,237.966644 
	C174.479340,237.935196 177.235062,237.959946 179.870361,238.308899 
	C180.444702,239.414139 181.062729,240.762772 181.848694,240.868988 
	C184.140793,241.178787 186.500000,240.993988 188.832901,240.999771 
	C196.050186,241.017654 196.914124,242.363281 193.486572,248.886520 
	C190.870117,249.994720 186.725967,248.191315 186.986420,253.395874 
	C187.371704,256.950989 186.208755,257.953888 183.011826,257.074402 
	C181.215454,256.580200 179.201385,256.722504 177.296921,256.815094 
	C174.913147,256.931000 172.258484,258.100525 170.218674,257.388580 
	C164.716492,255.468155 160.058853,258.408386 154.766052,259.226013 
	C151.621826,258.575867 148.745392,257.807739 145.868973,257.039581 
z"/>
<path fill="#32A9BD" opacity="1.000000" stroke="none" 
	d="
M146.025024,257.366211 
	C148.745392,257.807739 151.621826,258.575867 155.108734,259.274841 
	C165.134293,264.869934 174.931946,267.485718 185.733383,263.321198 
	C190.756760,261.384369 195.895020,259.745453 201.302322,257.837830 
	C205.112305,255.163467 208.601166,252.622787 212.486008,250.072922 
	C214.201736,250.028870 215.521484,249.994019 216.841232,249.959167 
	C208.298431,257.973938 197.525055,261.393646 186.746979,265.079071 
	C171.676514,270.232239 159.066803,263.600586 146.025024,257.366211 
z"/>
<path fill="#12ACBE" opacity="1.000000" stroke="none" 
	d="
M147.972443,248.213928 
	C146.675903,248.939285 145.387222,249.679138 144.080673,250.385971 
	C142.769211,251.095444 141.439941,251.771988 140.040359,252.789856 
	C139.522186,252.802155 139.082108,252.487579 138.163513,251.882401 
	C137.094147,251.402557 136.503326,251.213318 135.912491,251.024094 
	C135.912491,251.024094 135.993149,251.002930 135.863220,250.820404 
	C135.459961,250.421387 135.186646,250.204880 134.913330,249.988373 
	C134.913330,249.988373 134.998077,250.008179 134.946686,249.720566 
	C134.232849,248.967087 133.570404,248.501221 132.907959,248.035370 
	C132.907959,248.035370 132.978653,248.056885 132.953186,247.740646 
	C130.902771,245.632660 128.877823,243.840897 126.852875,242.049149 
	C126.852875,242.049149 126.940300,242.043625 126.973053,241.724792 
	C126.299393,239.658096 125.592987,237.910233 125.225533,236.035583 
	C126.059654,234.907257 126.554825,233.905716 127.389587,232.931183 
	C128.183060,232.959839 128.636932,232.961472 129.060425,232.945541 
	C129.030014,232.927979 129.083145,232.882065 129.062958,233.253998 
	C130.399628,235.060318 131.756485,236.494705 133.082581,237.948166 
	C133.051804,237.967255 133.019836,237.902283 133.148102,238.129929 
	C133.551620,238.566116 133.826874,238.774658 134.066757,238.973999 
	C134.031387,238.964798 134.053894,238.895248 134.101974,239.217789 
	C134.796494,240.012451 135.442917,240.484589 136.054047,240.963043 
	C136.018723,240.969360 136.046219,240.903076 136.088837,241.260712 
	C137.443436,242.403412 138.755417,243.188492 140.037231,243.983414 
	C140.007065,243.993256 140.020874,243.931320 140.085098,244.260803 
	C141.771774,245.726196 143.394241,246.862091 145.356598,247.998993 
	C146.150024,247.990967 146.603561,247.981949 147.291046,248.013763 
	C147.524994,248.054581 147.972443,248.213928 147.972443,248.213928 
z"/>
<path fill="#0FDBE2" opacity="1.000000" stroke="none" 
	d="
M96.801628,197.987076 
	C96.801628,197.987076 96.457947,197.983932 96.153389,197.590912 
	C93.843018,196.478699 91.837204,195.759506 89.831390,195.040298 
	C91.514565,192.889084 93.197739,190.737854 95.352219,188.273956 
	C96.509041,187.943451 97.194557,187.925644 98.134872,188.111053 
	C99.747383,189.527313 101.105103,190.740326 102.638412,192.282166 
	C105.033096,193.888153 107.252197,195.165283 109.036194,196.572723 
	C107.402077,196.800156 106.203072,196.897263 104.959930,196.907761 
	C104.915794,196.821136 104.686028,196.806885 104.686028,196.806885 
	C104.686028,196.806885 104.994514,197.003998 104.850708,197.268250 
	C104.099312,198.050980 103.491722,198.569458 102.535774,198.922821 
	C100.392159,198.500839 98.596893,198.243958 96.801628,197.987076 
z"/>
<path fill="#35EFEF" opacity="1.000000" stroke="none" 
	d="
M211.401428,111.030380 
	C213.046616,108.586998 215.041412,106.085815 217.468262,103.042923 
	C210.649017,98.213684 203.065460,96.063354 194.532639,97.367401 
	C193.059708,97.592506 191.589615,97.962685 190.179077,98.444153 
	C186.803970,99.596199 184.367966,98.712715 182.748810,95.461365 
	C181.582703,93.119720 180.247589,90.862236 178.986572,88.184746 
	C180.810638,89.879097 183.155533,91.700600 184.332687,94.095963 
	C185.879654,97.243813 187.883804,97.294197 190.743347,96.734680 
	C199.113632,95.096878 207.407700,95.265305 215.200302,99.143692 
	C217.199341,100.138611 218.721832,102.091034 220.880676,103.966110 
	C217.386536,106.647652 214.568787,108.810112 211.401428,111.030380 
z"/>
<path fill="#12ACBE" opacity="1.000000" stroke="none" 
	d="
M216.995728,249.659378 
	C215.521484,249.994019 214.201736,250.028870 212.218750,249.850830 
	C210.370209,249.092102 209.184891,248.546265 208.222198,247.751175 
	C212.616211,244.324997 216.787567,241.148056 221.245865,238.210266 
	C223.011703,238.629959 224.490601,238.810547 225.997589,239.250534 
	C226.036530,239.683548 226.047424,239.857162 226.058319,240.030777 
	C223.088959,243.140381 220.119598,246.249985 216.995728,249.659378 
z"/>
<path fill="#3DEDED" opacity="1.000000" stroke="none" 
	d="
M115.876709,168.937683 
	C115.579590,169.422043 115.282486,169.906403 114.718231,170.953842 
	C113.323685,173.697891 112.196266,175.878860 111.042282,178.036804 
	C111.015701,178.013794 110.962456,177.967896 110.962456,177.967896 
	C112.553474,169.331757 115.415962,161.152527 119.952965,153.616989 
	C122.719032,149.022812 123.444214,141.075302 118.056473,137.358612 
	C122.309189,137.019516 124.024162,140.108109 123.787750,143.554932 
	C123.500694,147.739899 122.277824,151.939438 120.917305,155.948563 
	C119.697983,159.541641 117.742897,162.885040 116.036781,167.011597 
	C115.933006,168.102280 115.904861,168.519989 115.876709,168.937683 
z"/>
<path fill="#35EFEF" opacity="1.000000" stroke="none" 
	d="
M168.951569,79.615852 
	C166.440613,79.087128 163.630188,78.549301 161.167725,77.316498 
	C152.423660,72.938904 143.178421,72.955284 134.036713,74.722458 
	C130.962479,75.316734 128.421600,78.670036 125.425262,81.104446 
	C120.685875,79.372841 124.336708,77.019745 125.664841,76.381256 
	C129.531387,74.522476 133.700455,72.569420 137.880051,72.226135 
	C148.809341,71.328484 159.405502,72.987701 168.951569,79.615852 
z"/>
<path fill="#3CDAE3" opacity="1.000000" stroke="none" 
	d="
M243.735413,176.969803 
	C244.991272,178.025574 246.217682,179.118912 247.508270,180.130371 
	C252.105820,183.733521 257.038544,186.981674 261.234650,191.000809 
	C264.444641,194.075409 263.456421,195.765884 259.147797,197.108368 
	C255.944931,198.106339 252.918121,199.669342 249.409592,200.992004 
	C249.006287,201.003311 248.938782,200.925781 249.026733,200.590515 
	C252.870621,198.274261 256.626556,196.293304 261.092468,193.937881 
	C259.371918,192.230911 257.716675,190.588760 256.051666,188.962601 
	C256.041870,188.978592 256.049225,188.962128 256.036194,188.728912 
	C256.023163,188.495697 255.978088,188.030731 255.763367,187.775436 
	C251.747147,185.327271 247.945679,183.134399 243.912689,180.692902 
	C243.142960,179.282486 242.604767,178.120667 242.344833,176.949387 
	C242.993881,176.949875 243.364639,176.959839 243.735413,176.969803 
z"/>
<path fill="#4DF6F8" opacity="1.000000" stroke="none" 
	d="
M243.817932,176.540253 
	C243.364639,176.959839 242.993881,176.949875 242.331650,176.524994 
	C242.015228,174.401962 241.990250,172.693863 241.965271,170.985764 
	C240.330231,163.989838 238.698776,156.993073 237.057144,149.998688 
	C236.719681,148.560806 236.344101,147.131882 236.017639,145.300842 
	C241.195084,151.747284 242.860901,159.642044 243.105591,168.651550 
	C243.351135,169.581390 243.556290,169.809296 243.808716,169.994644 
	C243.839294,172.033325 243.869858,174.072021 243.817932,176.540253 
z"/>
<path fill="#35EFEF" opacity="1.000000" stroke="none" 
	d="
M125.753510,82.049004 
	C133.226959,81.984268 137.061066,87.780548 141.279694,92.818893 
	C142.818176,94.656319 143.543915,97.174255 144.447739,99.697433 
	C143.817368,100.014008 143.379715,100.014870 142.942047,100.015732 
	C139.291779,92.181602 133.806534,86.110046 125.753510,82.049004 
z"/>
<path fill="#3CDAE3" opacity="1.000000" stroke="none" 
	d="
M120.924530,234.076248 
	C118.306297,229.107498 115.494476,224.228500 113.135208,219.139694 
	C111.451286,215.507553 110.375198,211.593597 109.034569,207.384888 
	C109.041260,206.964355 109.145744,206.871277 109.440002,206.949646 
	C110.501152,207.690445 111.268044,208.352875 112.086899,209.384079 
	C114.072792,214.835831 116.006721,219.918823 118.004860,225.359833 
	C119.058006,228.470490 120.046944,231.223129 121.007004,233.999725 
	C120.978127,234.023697 120.924530,234.076248 120.924530,234.076248 
z"/>
<path fill="#3CC4D5" opacity="1.000000" stroke="none" 
	d="
M240.809433,209.983093 
	C237.445786,218.250687 234.082153,226.518280 230.365189,234.899811 
	C230.011856,235.013733 229.949020,234.955124 229.952301,234.579727 
	C231.341873,230.474808 232.728180,226.745285 234.336929,222.753067 
	C236.038544,218.677536 237.517731,214.864700 239.198029,210.910095 
	C239.647385,210.547409 239.847672,210.289291 240.202362,209.988525 
	C240.404678,209.983078 240.809433,209.983093 240.809433,209.983093 
z"/>
<path fill="#3DEDED" opacity="1.000000" stroke="none" 
	d="
M141.571655,124.966568 
	C140.747498,125.286316 139.336502,126.202927 138.252533,125.909904 
	C130.077057,123.699898 122.941429,125.571167 116.482796,130.818665 
	C115.914803,131.280167 114.981377,131.291870 113.867554,131.376480 
	C119.988083,123.073975 128.888153,123.530220 137.890808,124.398140 
	C138.981934,124.503334 140.054886,124.796936 141.571655,124.966568 
z"/>
<path fill="#3DEDED" opacity="1.000000" stroke="none" 
	d="
M142.981949,100.408752 
	C143.379715,100.014870 143.817368,100.014008 144.581589,100.017868 
	C145.151627,106.828255 145.577820,113.636047 145.497925,120.437904 
	C145.480087,121.958061 143.686493,123.457352 142.324066,124.977791 
	C145.380035,117.064911 146.044479,109.015968 142.981949,100.408752 
z"/>
<path fill="#3DEDED" opacity="1.000000" stroke="none" 
	d="
M214.806610,125.706604 
	C209.589294,124.972931 207.366364,118.505707 210.533539,112.207687 
	C209.467987,117.209763 211.106537,121.573563 214.806610,125.706604 
z"/>
<path fill="#3DEDED" opacity="1.000000" stroke="none" 
	d="
M99.299118,184.389099 
	C102.961830,182.338760 106.624550,180.288422 110.624863,178.102997 
	C110.962456,177.967896 111.015701,178.013794 111.003586,178.398407 
	C107.345436,180.878662 103.699402,182.974289 99.869492,184.894531 
	C99.556770,184.609116 99.427940,184.499100 99.299118,184.389099 
z"/>
<path fill="#3DEDED" opacity="1.000000" stroke="none" 
	d="
M112.943680,131.699646 
	C114.757904,133.125351 116.273575,134.744995 117.887939,136.722519 
	C115.495758,136.587158 113.004906,136.093903 109.679840,135.435455 
	C110.739143,134.170181 111.692139,133.031891 112.943680,131.699646 
z"/>
<path fill="#4EC2CF" opacity="1.000000" stroke="none" 
	d="
M124.886574,236.162384 
	C125.592987,237.910233 126.299393,239.658096 126.972321,241.768570 
	C125.020271,239.968658 123.101707,237.806137 121.423172,235.294434 
	C121.829369,234.921951 121.995522,234.898666 122.433205,234.918655 
	C123.071815,235.000351 123.438896,235.038773 123.955971,235.283722 
	C124.386887,235.672729 124.667824,235.855209 124.919693,236.062119 
	C124.890617,236.086548 124.886574,236.162384 124.886574,236.162384 
z"/>
<path fill="#35EFEF" opacity="1.000000" stroke="none" 
	d="
M176.271683,84.936569 
	C174.020096,83.656738 171.583725,82.117432 169.095215,80.236977 
	C171.391022,81.489586 173.738953,83.083336 176.271683,84.936569 
z"/>
<path fill="#4EC2CF" opacity="1.000000" stroke="none" 
	d="
M126.928635,242.392303 
	C128.877823,243.840897 130.902771,245.632660 132.940414,247.775314 
	C130.970200,246.329300 128.987289,244.532364 126.928635,242.392303 
z"/>
<path fill="#3CDAE3" opacity="1.000000" stroke="none" 
	d="
M96.980103,198.305405 
	C98.596893,198.243958 100.392159,198.500839 102.710052,199.163757 
	C103.864410,200.327408 104.496147,201.085022 104.947495,202.067993 
	C104.651405,202.447113 104.535690,202.600876 104.419968,202.754654 
	C101.999504,201.377686 99.579041,200.000717 96.980103,198.305405 
z"/>
<path fill="#3CDAE3" opacity="1.000000" stroke="none" 
	d="
M240.956009,209.676575 
	C240.809433,209.983093 240.404678,209.983078 240.252075,209.641022 
	C241.718658,207.512497 243.337845,205.726044 244.983780,203.972977 
	C245.010529,204.006378 245.070984,204.066956 245.070984,204.066956 
	C243.748184,205.834656 242.425385,207.602356 240.956009,209.676575 
z"/>
<path fill="#4DF6F8" opacity="1.000000" stroke="none" 
	d="
M229.041138,134.618439 
	C227.416275,133.514816 225.744354,132.063751 224.051270,130.263107 
	C225.684753,131.366028 227.339417,132.818512 229.041138,134.618439 
z"/>
<path fill="#3CDAE3" opacity="1.000000" stroke="none" 
	d="
M108.988983,207.010849 
	C107.564857,205.780716 106.193024,204.504074 104.620575,202.991058 
	C104.535690,202.600876 104.651405,202.447113 105.271713,202.179626 
	C106.899460,203.667679 108.022606,205.269470 109.145744,206.871277 
	C109.145744,206.871277 109.041260,206.964355 108.988983,207.010849 
z"/>
<path fill="#4DF6F8" opacity="1.000000" stroke="none" 
	d="
M233.047745,139.614014 
	C231.733521,138.517395 230.384521,137.079590 229.035889,135.279449 
	C230.361816,136.369049 231.687393,137.820938 233.047745,139.614014 
z"/>
<path fill="#3CDAE3" opacity="1.000000" stroke="none" 
	d="
M89.924301,195.419464 
	C91.837204,195.759506 93.843018,196.478699 95.997345,197.518921 
	C94.102982,197.159500 92.060097,196.479050 89.924301,195.419464 
z"/>
<path fill="#3CC4D5" opacity="1.000000" stroke="none" 
	d="
M226.360840,239.900116 
	C226.047424,239.857162 226.036530,239.683548 226.141693,238.949768 
	C227.488159,237.244781 228.718582,236.099945 229.949005,234.955109 
	C229.949020,234.955124 230.011856,235.013733 230.043198,235.043137 
	C228.937485,236.638168 227.800430,238.203812 226.360840,239.900116 
z"/>
<path fill="#3DEDED" opacity="1.000000" stroke="none" 
	d="
M97.880074,187.907837 
	C97.194557,187.925644 96.509041,187.943451 95.480774,187.942383 
	C96.357216,186.877655 97.576408,185.831802 99.047356,184.587524 
	C99.427940,184.499100 99.556770,184.609116 99.719238,185.151123 
	C99.128616,186.358017 98.504341,187.132935 97.880074,187.907837 
z"/>
<path fill="#4DF6F8" opacity="1.000000" stroke="none" 
	d="
M236.067734,144.616501 
	C235.056229,143.533783 233.997192,142.100555 232.995850,140.297501 
	C234.042419,141.373779 235.031311,142.819885 236.067734,144.616501 
z"/>
<path fill="#4DF6F8" opacity="1.000000" stroke="none" 
	d="
M222.950180,128.642609 
	C221.727264,128.254013 220.382095,127.545525 218.917389,126.505020 
	C220.141220,126.889580 221.484573,127.606155 222.950180,128.642609 
z"/>
<path fill="#3CDAE3" opacity="1.000000" stroke="none" 
	d="
M249.040344,201.041809 
	C248.284500,201.712112 247.494629,202.343948 246.357086,202.993683 
	C246.009399,203.011566 245.951721,202.962021 246.037079,202.636414 
	C247.061234,201.849136 248.000015,201.387466 248.938782,200.925781 
	C248.938782,200.925781 249.006287,201.003311 249.040344,201.041809 
z"/>
<path fill="#4EC2CF" opacity="1.000000" stroke="none" 
	d="
M133.004944,248.323181 
	C133.570404,248.501221 134.232849,248.967087 134.936493,249.762863 
	C134.352432,249.598862 133.727173,249.104935 133.004944,248.323181 
z"/>
<path fill="#4EC2CF" opacity="1.000000" stroke="none" 
	d="
M136.011169,251.290176 
	C136.503326,251.213318 137.094147,251.402557 137.893372,251.831192 
	C137.437775,251.899139 136.773819,251.727692 136.011169,251.290176 
z"/>
<path fill="#4DF6F8" opacity="1.000000" stroke="none" 
	d="
M218.107239,125.752563 
	C217.759262,126.076843 217.249252,126.095772 216.357422,126.091354 
	C216.632141,125.861076 217.288696,125.654152 218.107239,125.752563 
z"/>
<path fill="#35EFEF" opacity="1.000000" stroke="none" 
	d="
M178.099442,86.761406 
	C177.711548,86.704994 177.222794,86.398842 176.750366,85.784439 
	C177.177322,85.821342 177.587952,86.166496 178.099442,86.761406 
z"/>
<path fill="#3CDAE3" opacity="1.000000" stroke="none" 
	d="
M246.036163,203.038559 
	C245.896011,203.351486 245.729095,203.637421 245.316589,203.995148 
	C245.070984,204.066956 245.010529,204.006378 245.098419,203.763016 
	C245.388321,203.260864 245.643463,203.074997 245.951721,202.962021 
	C245.951721,202.962021 246.009399,203.011566 246.036163,203.038559 
z"/>
<path fill="#3CDAE3" opacity="1.000000" stroke="none" 
	d="
M243.863647,169.731888 
	C243.556290,169.809296 243.351135,169.581390 243.129578,169.088806 
	C243.350113,169.067505 243.634354,169.268326 243.863647,169.731888 
z"/>
<path fill="#4EC2CF" opacity="1.000000" stroke="none" 
	d="
M135.001511,250.252609 
	C135.186646,250.204880 135.459961,250.421387 135.873505,250.860809 
	C135.705734,250.894760 135.397705,250.705811 135.001511,250.252609 
z"/>
<path fill="#3CDAE3" opacity="1.000000" stroke="none" 
	d="
M122.161682,234.875381 
	C121.995522,234.898666 121.829369,234.921951 121.411728,234.954529 
	C121.160240,234.963837 121.012321,234.527985 120.968430,234.302124 
	C120.924530,234.076248 120.978127,234.023697 121.238571,234.085754 
	C121.765511,234.348816 121.986397,234.591339 122.161682,234.875381 
z"/>
<path fill="#4DF6F8" opacity="1.000000" stroke="none" 
	d="
M224.009003,129.727554 
	C223.796234,129.798904 223.507019,129.603439 223.111221,129.164215 
	C223.313950,129.100525 223.623230,129.280624 224.009003,129.727554 
z"/>
<path fill="#2B3C3D" opacity="1.000000" stroke="none" 
	d="
M109.471298,196.442413 
	C107.252197,195.165283 105.033096,193.888153 102.949692,192.088013 
	C108.310898,189.350693 113.536415,187.136414 119.056908,184.688080 
	C120.521271,178.807022 121.690651,173.160019 122.860046,167.513000 
	C122.860046,167.513000 122.818352,167.203354 123.262283,167.004929 
	C124.472694,164.938599 125.239174,163.070694 126.005661,161.202805 
	C127.245895,156.964127 128.833160,152.790283 129.639893,148.470642 
	C130.685959,142.869431 129.617004,137.566589 124.935577,133.020538 
	C132.215637,129.642715 138.078278,132.405228 143.714111,135.885941 
	C156.595566,121.917183 154.980270,101.473289 138.928146,80.398628 
	C149.212982,79.842545 158.068695,82.044685 166.161392,87.335693 
	C174.462036,92.762680 178.892303,101.046028 182.113358,110.173660 
	C184.755371,108.638763 187.033569,107.315231 189.680511,106.318970 
	C190.896744,108.370758 191.294403,110.727982 192.671768,111.707237 
	C197.867615,115.401306 196.982605,119.448105 194.036331,123.645599 
	C193.513077,122.935226 193.056442,122.476540 192.446716,121.665100 
	C192.064880,119.597733 191.836136,117.883125 191.607391,116.168503 
	C190.199951,117.488365 188.547485,118.637138 187.466629,120.185059 
	C186.676224,121.316986 186.309387,122.977783 186.326691,124.395859 
	C186.374084,128.284973 186.723724,132.170380 186.614700,136.131927 
	C185.152344,138.543304 184.029022,140.880020 182.608429,143.027023 
	C180.896042,138.385254 178.772461,134.019257 178.219009,129.462555 
	C177.189850,120.989143 176.007767,112.624947 171.605270,105.195480 
	C168.268982,99.565285 164.090958,94.588097 156.983200,92.680771 
	C157.635773,94.031494 158.288345,95.382225 158.869827,97.191185 
	C159.186172,100.903175 159.648209,104.150085 159.947754,107.411911 
	C161.065903,119.588776 157.283661,130.741898 152.678253,141.757233 
	C152.675171,141.799515 152.757645,141.819321 152.456558,141.974152 
	C150.864609,144.361023 149.573746,146.593079 148.103302,148.715332 
	C147.923721,148.605545 147.527298,148.747208 147.211761,148.704819 
	C144.153748,146.918732 141.411255,145.175018 137.954544,142.977219 
	C137.954544,145.512131 137.954544,147.267776 137.844162,149.382629 
	C135.040756,156.670975 132.370026,163.608887 129.647400,170.526352 
	C127.595383,175.739960 127.250420,180.900345 129.974762,186.279984 
	C130.283432,187.000366 130.508331,187.468063 130.489929,188.149353 
	C129.543777,189.561111 129.074722,191.479324 128.086975,191.800018 
	C126.306732,192.378052 124.206848,191.889038 122.257240,192.049469 
	C119.957085,192.238754 118.995689,193.054886 121.370766,195.095230 
	C121.819832,195.919525 122.282448,196.469711 122.863312,197.291656 
	C123.313110,197.732773 123.644653,197.902130 123.979416,198.037842 
	C123.982651,198.004196 123.915405,198.011322 123.842331,198.416626 
	C123.830719,199.910919 123.892166,200.999908 123.667969,202.260223 
	C122.187660,203.729370 120.993004,205.027176 119.533630,206.384399 
	C117.613327,204.880096 115.957748,203.316376 114.233780,201.498322 
	C113.846703,200.838547 113.528030,200.433090 113.198822,199.669525 
	C111.951599,198.372742 110.714912,197.434067 109.470261,196.483597 
	C109.462296,196.471802 109.471298,196.442413 109.471298,196.442413 
z"/>
<path fill="#334041" opacity="1.000000" stroke="none" 
	d="
M194.102951,123.897285 
	C196.982605,119.448105 197.867615,115.401306 192.671768,111.707237 
	C191.294403,110.727982 190.896744,108.370758 190.036713,106.273499 
	C190.024170,105.900764 190.320190,105.595009 190.816925,105.886047 
	C194.527893,106.794472 197.742142,107.411865 200.799896,108.369507 
	C199.058029,112.501907 197.155731,116.299263 200.828690,120.005157 
	C203.156311,123.556084 205.483917,127.107010 208.210480,131.068665 
	C208.981812,131.769058 209.354202,132.058701 209.726578,132.348358 
	C209.726578,132.348358 209.754181,132.261093 209.814850,132.511078 
	C210.165146,132.952576 210.454758,133.144119 210.744354,133.335663 
	C210.744354,133.335663 210.748795,133.237167 210.792084,133.508667 
	C211.135529,133.967102 211.435715,134.154053 211.735886,134.340988 
	C211.735886,134.340988 211.739792,134.231903 211.729889,134.498840 
	C211.966431,134.985550 212.212875,135.205307 212.459320,135.425064 
	C212.459320,135.425064 212.499969,135.466797 212.562531,135.835449 
	C213.905319,138.598892 215.185547,140.993683 216.605026,143.648926 
	C220.478531,140.769394 223.298355,141.715927 225.765091,144.621460 
	C225.765091,144.621460 225.762848,144.811447 225.915497,145.166931 
	C227.003525,146.729370 227.938919,147.936325 228.874313,149.143280 
	C228.874313,149.143280 228.919739,149.072662 228.901108,149.330841 
	C229.093048,149.851471 229.303619,150.113907 229.514191,150.376328 
	C229.514191,150.376328 229.482819,150.198608 229.525024,150.603989 
	C230.004883,151.716476 230.442535,152.423584 230.880188,153.130707 
	C230.880188,153.130707 230.972183,153.030701 230.945221,153.425064 
	C231.240875,154.893814 231.563507,155.968216 231.886139,157.042618 
	C232.263840,158.759933 232.641556,160.477249 233.010284,163.006561 
	C232.959274,165.556931 232.917221,167.295288 232.563995,168.984100 
	C230.783676,168.361130 229.314529,167.787689 227.577377,166.980026 
	C226.232193,164.455841 225.155014,162.165894 224.019623,159.584198 
	C223.670181,158.814651 223.378937,158.336838 223.075897,157.497223 
	C222.601562,153.609955 221.257065,153.390762 218.763443,155.770859 
	C217.121017,157.338531 215.107361,158.517273 213.107147,159.546906 
	C211.894348,156.812546 210.834335,154.401443 209.834305,151.614716 
	C208.561340,148.298920 207.527832,145.171997 205.834351,142.456665 
	C202.081985,136.440140 197.998276,130.630310 194.011597,124.578400 
	C193.973526,124.420601 193.892471,124.106239 193.945160,124.054062 
	C193.997833,124.001884 194.102951,123.897285 194.102951,123.897285 
z"/>
<path fill="#11E5EA" opacity="1.000000" stroke="none" 
	d="
M118.761932,184.922119 
	C113.536415,187.136414 108.310898,189.350693 102.774101,191.759155 
	C101.105103,190.740326 99.747383,189.527313 98.134872,188.111069 
	C98.504341,187.132935 99.128616,186.358017 99.903130,185.326508 
	C103.699402,182.974289 107.345436,180.878662 111.030159,178.421432 
	C112.196266,175.878860 113.323685,173.697891 114.666504,171.238647 
	C115.364693,171.563889 115.847473,172.167374 116.357735,172.805206 
	C117.686226,171.924728 119.045013,171.024185 120.737396,170.481628 
	C120.301300,175.533768 119.531616,180.227951 118.761932,184.922119 
z"/>
<path fill="#11E5EA" opacity="1.000000" stroke="none" 
	d="
M241.583176,171.005493 
	C241.990250,172.693863 242.015228,174.401962 242.053375,176.534454 
	C242.604767,178.120667 243.142960,179.282486 243.583145,180.775940 
	C241.758331,181.797195 240.031525,182.486771 238.112823,183.253006 
	C239.508972,184.781937 240.772522,186.165665 241.663361,187.456558 
	C239.202148,186.556519 237.113663,185.749313 235.034790,184.501389 
	C235.344650,180.059250 235.644867,176.057800 235.945084,172.056366 
	C237.697083,171.712646 239.449081,171.368927 241.583176,171.005493 
z"/>
<path fill="#3CDAE3" opacity="1.000000" stroke="none" 
	d="
M235.923782,171.653534 
	C235.644867,176.057800 235.344650,180.059250 234.700378,184.477142 
	C233.817337,184.239273 233.278320,183.584946 232.859314,182.522675 
	C232.944626,177.754364 232.909897,173.394012 232.875183,169.033661 
	C232.917221,167.295288 232.959274,165.556931 233.068588,163.387787 
	C234.058060,165.721573 234.980270,168.486145 235.923782,171.653534 
z"/>
<path fill="#3CDAE3" opacity="1.000000" stroke="none" 
	d="
M225.799896,144.241531 
	C223.298355,141.715927 220.478531,140.769394 216.605026,143.648926 
	C215.185547,140.993683 213.905319,138.598892 212.541809,135.855927 
	C214.038315,136.945786 215.618088,138.383789 217.502045,140.098694 
	C218.304962,139.502853 219.418900,138.676224 221.172684,137.374756 
	C222.753403,139.574203 224.294052,141.717911 225.799896,144.241531 
z"/>
<path fill="#2B3C3D" opacity="1.000000" stroke="none" 
	d="
M200.956375,108.029251 
	C197.742142,107.411865 194.527893,106.794472 191.029266,105.872299 
	C195.349258,105.129242 199.953644,104.690971 204.800858,104.605904 
	C205.043671,104.959099 204.856812,105.143646 204.494293,105.112984 
	C203.098694,106.043991 202.065598,107.005653 201.013992,107.983437 
	C200.995499,107.999557 200.956375,108.029251 200.956375,108.029251 
z"/>
<path fill="#2B3E40" opacity="1.000000" stroke="none" 
	d="
M119.056908,184.688080 
	C119.531616,180.227951 120.301300,175.533768 121.063972,170.438171 
	C121.506859,169.344818 121.956749,168.652908 122.633331,167.737000 
	C121.690651,173.160019 120.521271,178.807022 119.056908,184.688080 
z"/>
<path fill="#2B3C3D" opacity="1.000000" stroke="none" 
	d="
M200.910400,119.570755 
	C197.155731,116.299263 199.058029,112.501907 200.799896,108.369507 
	C200.956375,108.029251 200.995499,107.999557 201.244629,107.979294 
	C201.493774,107.959038 201.955338,107.934708 202.133820,108.089073 
	C202.312302,108.243439 202.684616,108.533455 202.684616,108.533455 
	C202.120453,112.067757 201.556290,115.602051 200.910400,119.570755 
z"/>
<path fill="#2B3E40" opacity="1.000000" stroke="none" 
	d="
M125.698730,161.324341 
	C125.239174,163.070694 124.472694,164.938599 123.380981,166.903366 
	C123.834435,165.148773 124.613113,163.297333 125.698730,161.324341 
z"/>
<path fill="#3CDAE3" opacity="1.000000" stroke="none" 
	d="
M228.914093,148.775482 
	C227.938919,147.936325 227.003525,146.729370 226.008209,145.187653 
	C226.950134,146.037811 227.951996,147.222748 228.914093,148.775482 
z"/>
<path fill="#3CDAE3" opacity="1.000000" stroke="none" 
	d="
M231.954071,156.716766 
	C231.563507,155.968216 231.240875,154.893814 230.887054,153.460175 
	C231.244583,154.197601 231.633286,155.294266 231.954071,156.716766 
z"/>
<path fill="#3CDAE3" opacity="1.000000" stroke="none" 
	d="
M230.913666,152.775299 
	C230.442535,152.423584 230.004883,151.716476 229.511536,150.693207 
	C229.952942,151.057999 230.450043,151.738953 230.913666,152.775299 
z"/>
<path fill="#11E5EA" opacity="1.000000" stroke="none" 
	d="
M116.083099,168.805389 
	C115.904861,168.519989 115.933006,168.102280 115.985176,167.372391 
	C116.102623,167.597824 116.196053,168.135452 116.083099,168.805389 
z"/>
<path fill="#3CDAE3" opacity="1.000000" stroke="none" 
	d="
M209.689209,132.087357 
	C209.354202,132.058701 208.981812,131.769058 208.505951,131.266815 
	C208.818939,131.311600 209.235397,131.568970 209.689209,132.087357 
z"/>
<path fill="#2B3C3D" opacity="1.000000" stroke="none" 
	d="
M205.011520,106.007011 
	C204.672363,106.433144 204.333221,106.859276 203.615112,107.269592 
	C203.236176,107.253784 202.960022,106.955917 203.148132,106.747330 
	C203.845657,106.319504 204.355103,106.100281 204.901093,105.912766 
	C204.937637,105.944473 205.011520,106.007011 205.011520,106.007011 
z"/>
<path fill="#3CDAE3" opacity="1.000000" stroke="none" 
	d="
M229.534988,150.105133 
	C229.303619,150.113907 229.093048,149.851471 228.859131,149.331879 
	C229.075790,149.327805 229.315796,149.580887 229.534988,150.105133 
z"/>
<path fill="#3CDAE3" opacity="1.000000" stroke="none" 
	d="
M212.471283,135.149414 
	C212.212875,135.205307 211.966431,134.985550 211.677246,134.513290 
	C211.917435,134.465118 212.200348,134.669449 212.471283,135.149414 
z"/>
<path fill="#3CDAE3" opacity="1.000000" stroke="none" 
	d="
M211.666382,134.069092 
	C211.435715,134.154053 211.135529,133.967102 210.744843,133.522766 
	C210.968506,133.442627 211.282684,133.619904 211.666382,134.069092 
z"/>
<path fill="#3CDAE3" opacity="1.000000" stroke="none" 
	d="
M210.670013,133.067978 
	C210.454758,133.144119 210.165146,132.952576 209.769501,132.517197 
	C209.974213,132.448990 210.284927,132.624649 210.670013,133.067978 
z"/>
<path fill="#2B3C3D" opacity="1.000000" stroke="none" 
	d="
M205.137177,104.866875 
	C205.370483,105.004082 205.540497,105.222244 205.632782,105.469421 
	C205.662750,105.549698 205.489426,105.705856 205.210297,105.917160 
	C205.011520,106.007011 204.937637,105.944473 204.911880,105.728470 
	C204.886124,105.512459 204.856812,105.143646 204.856812,105.143646 
	C204.856812,105.143646 205.043671,104.959099 205.137177,104.866875 
z"/>
<path fill="#2B3C3D" opacity="1.000000" stroke="none" 
	d="
M203.371597,107.405136 
	C203.456451,107.863770 203.311661,108.117218 202.878632,108.425148 
	C202.684616,108.533455 202.312302,108.243439 202.272186,107.897934 
	C202.436142,107.306496 202.678787,107.107658 202.960022,106.955917 
	C202.960022,106.955917 203.236176,107.253784 203.371597,107.405136 
z"/>
<path fill="#12F6F7" opacity="1.000000" stroke="none" 
	d="
M179.990768,237.984711 
	C177.235062,237.959946 174.479340,237.935196 171.121613,237.905182 
	C170.519592,237.899933 170.081345,237.796402 169.943054,237.594315 
	C169.566666,237.128937 169.271225,237.016693 168.560135,236.980804 
	C164.206482,234.834076 159.867569,233.227081 156.292511,230.586075 
	C150.240875,226.115524 144.671951,220.991547 138.858261,215.762161 
	C137.080429,207.236145 133.064606,200.611191 126.171906,195.826279 
	C127.283409,195.383026 128.153458,195.180099 129.254578,195.216476 
	C133.240509,198.789108 136.995346,202.122437 140.967422,205.648605 
	C141.961533,204.201508 143.078537,202.575531 144.763504,200.122787 
	C147.804718,205.337540 150.345596,209.694351 152.930267,214.411407 
	C155.639771,218.682755 157.779968,223.143494 161.126205,226.342865 
	C164.174255,229.257141 168.308731,231.869370 172.360596,232.714142 
	C179.347717,234.170883 185.963211,232.257431 191.028595,226.574829 
	C191.714798,225.805023 193.031372,225.597122 194.266907,225.389053 
	C193.655594,227.793701 192.833435,229.938324 192.009399,232.049530 
	C192.007507,232.016083 192.072784,232.031082 191.763351,232.055145 
	C190.970535,232.431610 190.487137,232.784012 189.848038,233.446747 
	C186.819580,235.170715 183.946838,236.584366 180.803711,237.957870 
	C180.352478,237.940063 180.171631,237.962387 179.990768,237.984711 
z"/>
<path fill="#1D9EB0" opacity="1.000000" stroke="none" 
	d="
M179.870361,238.308899 
	C180.171631,237.962387 180.352478,237.940063 180.960861,238.320862 
	C187.168686,239.149048 192.948990,239.574081 200.127884,240.101944 
	C203.336273,235.572189 207.541214,230.284515 210.934525,224.519135 
	C212.256027,222.273819 211.748550,218.952026 212.063049,215.834641 
	C212.045944,215.358047 212.039993,215.167374 212.258026,214.709625 
	C216.277466,208.836899 220.126129,203.265854 223.816284,197.591736 
	C224.435211,196.640060 224.367661,195.241928 224.713348,193.973846 
	C224.809372,193.897598 225.042587,193.821777 225.375305,193.873795 
	C226.463409,193.496643 227.218781,193.067459 228.375122,192.618576 
	C232.109467,193.038712 231.052902,194.709778 230.107544,196.694061 
	C228.309158,200.468933 226.762009,204.363480 224.879944,208.502594 
	C221.774826,215.481277 219.343170,222.402924 215.920044,228.793472 
	C211.018951,237.943192 203.765335,244.928558 193.979141,248.976929 
	C193.939972,248.932022 193.864212,248.840073 193.864212,248.840073 
	C196.914124,242.363281 196.050186,241.017654 188.832901,240.999771 
	C186.500000,240.993988 184.140793,241.178787 181.848694,240.868988 
	C181.062729,240.762772 180.444702,239.414139 179.870361,238.308899 
z"/>
<path fill="#000000" opacity="1.000000" stroke="none" 
	d="
M119.798355,206.324982 
	C120.993004,205.027176 122.187660,203.729370 123.886093,202.548187 
	C124.967125,203.995544 125.597954,205.305893 126.112999,206.660263 
	C129.613220,215.864716 131.790070,225.676636 138.466095,233.455444 
	C138.483597,233.485550 138.544846,233.518631 138.677551,233.781464 
	C139.530365,234.718460 140.250458,235.392639 140.976517,236.040039 
	C140.982483,236.013260 140.931778,236.035416 140.995300,236.378632 
	C147.043121,241.154785 153.027405,245.587708 159.011688,250.020630 
	C155.585968,249.380096 152.160263,248.739578 148.353485,248.156494 
	C147.972443,248.213928 147.524994,248.054581 147.161011,247.733551 
	C146.211853,247.251358 145.626663,247.090195 144.872650,246.642059 
	C143.142838,245.547150 141.581863,244.739227 140.020874,243.931320 
	C140.020874,243.931320 140.007065,243.993256 139.906525,243.679169 
	C138.552734,242.544418 137.299484,241.723740 136.046219,240.903076 
	C136.046219,240.903076 136.018723,240.969360 135.951706,240.681091 
	C135.274429,239.893631 134.664154,239.394440 134.053894,238.895248 
	C134.053894,238.895248 134.031387,238.964798 133.992126,238.704483 
	C133.641846,238.263535 133.330841,238.082916 133.019836,237.902283 
	C133.019836,237.902283 133.051804,237.967255 132.957855,237.637894 
	C131.603653,235.833054 130.343399,234.357559 129.083145,232.882065 
	C129.083145,232.882065 129.030014,232.927979 129.003891,232.573853 
	C125.917961,223.588150 122.858154,214.956573 119.798355,206.324982 
z"/>
<path fill="#119CAE" opacity="1.000000" stroke="none" 
	d="
M200.981201,257.971527 
	C195.895020,259.745453 190.756760,261.384369 185.733383,263.321198 
	C174.931946,267.485718 165.134293,264.869934 155.376526,259.156860 
	C160.058853,258.408386 164.716492,255.468155 170.218674,257.388580 
	C172.258484,258.100525 174.913147,256.931000 177.296921,256.815094 
	C179.201385,256.722504 181.215454,256.580200 183.011826,257.074402 
	C186.208755,257.953888 187.371704,256.950989 187.328323,253.396271 
	C188.122467,253.016953 188.577927,253.026566 189.121735,253.368362 
	C190.905670,254.293610 193.151260,255.880188 194.197769,255.300842 
	C197.929489,253.234970 199.488266,255.168716 200.981201,257.971527 
z"/>
<path fill="#000000" opacity="1.000000" stroke="none" 
	d="
M138.900085,216.142273 
	C144.671951,220.991547 150.240875,226.115524 156.292511,230.586075 
	C159.867569,233.227081 164.206482,234.834076 168.643585,237.250031 
	C169.417297,237.661438 169.749329,237.728928 170.081345,237.796402 
	C170.081345,237.796402 170.519592,237.899933 170.736145,237.961380 
	C166.527344,242.858475 161.297104,240.362640 156.266342,239.621918 
	C155.147293,239.457138 154.043243,239.190598 152.450562,238.593231 
	C149.679092,236.774841 147.389328,235.334167 145.083496,233.920685 
	C145.067444,233.947876 145.129730,233.939346 145.060547,233.584457 
	C142.670105,228.453033 140.348862,223.676483 137.908539,218.597504 
	C138.159668,217.577454 138.529877,216.859863 138.900085,216.142273 
z"/>
<path fill="#32A9BD" opacity="1.000000" stroke="none" 
	d="
M159.240295,249.960526 
	C153.027405,245.587708 147.043121,241.154785 141.343719,236.413269 
	C142.750732,236.401306 143.872849,236.697968 144.997345,236.997162 
	C144.999710,236.999695 145.004852,237.005295 145.004852,237.005295 
	C149.846298,240.946762 154.687881,244.888077 159.528610,248.830414 
	C159.655258,248.933517 159.894501,249.091049 159.873749,249.149368 
	C159.779510,249.414200 159.610794,249.652542 159.240295,249.960526 
z"/>
<path fill="#1D9EB0" opacity="1.000000" stroke="none" 
	d="
M189.033371,253.036194 
	C188.577927,253.026566 188.122467,253.016953 187.325119,253.006958 
	C186.725967,248.191315 190.870117,249.994720 193.486572,248.886520 
	C193.864212,248.840073 193.939972,248.932022 193.883698,249.250992 
	C193.887177,250.131042 193.946930,250.692123 193.871811,251.576508 
	C192.169098,252.278610 190.601242,252.657394 189.033371,253.036194 
z"/>
<path fill="#32A9BD" opacity="1.000000" stroke="none" 
	d="
M145.099548,233.893494 
	C147.389328,235.334167 149.679092,236.774841 152.036285,238.573792 
	C149.980576,238.323776 147.857422,237.715485 145.369568,237.056244 
	C145.004852,237.005295 144.999710,236.999695 145.000168,236.609253 
	C145.033600,235.443695 145.066574,234.668594 145.099548,233.893494 
z"/>
<path fill="#16A0B4" opacity="1.000000" stroke="none" 
	d="
M189.121735,253.368378 
	C190.601242,252.657394 192.169098,252.278610 194.195496,251.497894 
	C195.095947,251.052002 195.537872,251.008026 196.232925,251.173004 
	C200.323898,250.254776 204.161743,249.127609 207.999573,248.000427 
	C209.184891,248.546265 210.370209,249.092102 211.822769,249.860046 
	C208.601166,252.622787 205.112305,255.163467 201.302322,257.837830 
	C199.488266,255.168716 197.929489,253.234970 194.197769,255.300842 
	C193.151260,255.880188 190.905670,254.293610 189.121735,253.368378 
z"/>
<path fill="#3CC4D5" opacity="1.000000" stroke="none" 
	d="
M119.533623,206.384399 
	C122.858154,214.956573 125.917961,223.588150 129.034302,232.591431 
	C128.636932,232.961472 128.183060,232.959839 127.324577,232.586777 
	C125.307076,229.100449 123.694183,225.985519 122.050774,222.491638 
	C120.364349,218.379013 118.708435,214.645325 116.809456,210.878510 
	C116.566391,210.845352 116.088127,210.735870 116.098740,210.580185 
	C116.109344,210.424500 116.091019,210.112930 116.122917,209.880203 
	C116.154816,209.647476 116.139641,209.177917 116.321091,209.020844 
	C116.723106,208.626617 116.888161,208.355652 116.871704,207.729263 
	C115.931206,205.522659 115.116692,203.637650 114.302177,201.752640 
	C115.957748,203.316376 117.613327,204.880096 119.533623,206.384399 
z"/>
<path fill="#10B5C5" opacity="1.000000" stroke="none" 
	d="
M122.081284,222.870605 
	C123.694183,225.985519 125.307076,229.100449 126.984985,232.559769 
	C126.554825,233.905716 126.059654,234.907257 125.225533,236.035583 
	C124.886574,236.162384 124.890617,236.086548 124.776810,235.851105 
	C124.377327,235.436172 124.091660,235.256668 123.805984,235.077179 
	C123.438896,235.038773 123.071815,235.000351 122.433205,234.918655 
	C121.986397,234.591339 121.765511,234.348816 121.267456,234.061783 
	C120.046944,231.223129 119.058006,228.470490 118.384018,225.357544 
	C119.826408,224.288345 120.953842,223.579468 122.081284,222.870605 
z"/>
<path fill="#32A9BD" opacity="1.000000" stroke="none" 
	d="
M129.062958,233.253998 
	C130.343399,234.357559 131.603653,235.833054 132.988632,237.618805 
	C131.756485,236.494705 130.399628,235.060318 129.062958,233.253998 
z"/>
<path fill="#32A9BD" opacity="1.000000" stroke="none" 
	d="
M136.088837,241.260712 
	C137.299484,241.723740 138.552734,242.544418 139.936707,243.669327 
	C138.755417,243.188492 137.443436,242.403412 136.088837,241.260712 
z"/>
<path fill="#32A9BD" opacity="1.000000" stroke="none" 
	d="
M140.085098,244.260803 
	C141.581863,244.739227 143.142838,245.547150 144.861298,246.909088 
	C145.018097,247.641373 145.017395,247.819672 145.016693,247.997986 
	C143.394241,246.862091 141.771774,245.726196 140.085098,244.260803 
z"/>
<path fill="#32A9BD" opacity="1.000000" stroke="none" 
	d="
M134.101974,239.217789 
	C134.664154,239.394440 135.274429,239.893631 135.987030,240.674759 
	C135.442917,240.484589 134.796494,240.012451 134.101974,239.217789 
z"/>
<path fill="#16A0B4" opacity="1.000000" stroke="none" 
	d="
M145.356598,247.998993 
	C145.017395,247.819672 145.018097,247.641373 145.030136,247.196060 
	C145.626663,247.090195 146.211853,247.251358 146.927063,247.692719 
	C146.603561,247.981949 146.150024,247.990967 145.356598,247.998993 
z"/>
<path fill="#32A9BD" opacity="1.000000" stroke="none" 
	d="
M133.148102,238.129944 
	C133.330841,238.082916 133.641846,238.263535 134.027496,238.713684 
	C133.826874,238.774658 133.551620,238.566116 133.148102,238.129944 
z"/>
<path fill="#0ED2DB" opacity="1.000000" stroke="none" 
	d="
M116.139641,209.177917 
	C116.139641,209.177917 116.154816,209.647476 115.874054,209.764603 
	C114.407166,209.592926 113.221046,209.304123 112.034927,209.015320 
	C111.268044,208.352875 110.501152,207.690445 109.440002,206.949646 
	C108.022606,205.269470 106.899460,203.667679 105.452103,201.954254 
	C104.496147,201.085022 103.864410,200.327408 103.058395,199.328857 
	C103.491722,198.569458 104.099312,198.050980 104.853455,197.266251 
	C105.000000,197.000000 105.004059,196.994385 105.004059,196.994385 
	C106.203072,196.897263 107.402077,196.800156 109.036194,196.572723 
	C109.471298,196.442413 109.462296,196.471802 109.453018,196.850433 
	C110.698952,198.161911 111.954147,199.094772 113.209351,200.027618 
	C113.528030,200.433090 113.846703,200.838547 114.233780,201.498322 
	C115.116692,203.637650 115.931206,205.522659 116.669601,207.865692 
	C116.345963,208.557266 116.194672,208.842010 116.139641,209.177917 
z"/>
<path fill="#0ED2DB" opacity="1.000000" stroke="none" 
	d="
M104.997253,197.001999 
	C104.994514,197.003998 104.686028,196.806885 104.686028,196.806885 
	C104.686028,196.806885 104.915794,196.821136 104.959930,196.907761 
	C105.004059,196.994385 105.000000,197.000000 104.997253,197.001999 
z"/>
<path fill="#1D9EB0" opacity="1.000000" stroke="none" 
	d="
M208.222198,247.751190 
	C204.161743,249.127609 200.323898,250.254776 196.429016,250.862091 
	C213.714493,245.226044 224.654099,234.158295 228.418701,216.067673 
	C229.306458,215.500031 229.916962,215.028305 230.603348,214.939362 
	C229.766586,218.544434 228.853943,221.766724 227.710205,225.243683 
	C225.305710,229.655960 223.132324,233.813553 220.958939,237.971130 
	C216.787567,241.148056 212.616211,244.324997 208.222198,247.751190 
z"/>
<path fill="#10B5C5" opacity="1.000000" stroke="none" 
	d="
M221.245865,238.210266 
	C223.132324,233.813553 225.305710,229.655960 228.088547,225.242767 
	C230.503494,224.330002 232.308990,223.672867 234.114502,223.015747 
	C232.728180,226.745285 231.341873,230.474808 229.952286,234.579712 
	C228.718582,236.099945 227.488159,237.244781 226.113617,238.690369 
	C224.490601,238.810547 223.011703,238.629959 221.245865,238.210266 
z"/>
<path fill="#0ED2DB" opacity="1.000000" stroke="none" 
	d="
M246.037079,202.636414 
	C245.643463,203.074997 245.388321,203.260864 245.071686,203.729614 
	C243.337845,205.726044 241.718658,207.512497 240.049774,209.646469 
	C239.847672,210.289291 239.647385,210.547409 239.186874,210.598740 
	C238.591843,209.840744 238.209122,209.252350 237.826401,208.663940 
	C234.153000,211.334290 234.648346,207.863693 234.084198,205.726242 
	C237.760651,201.705444 241.340973,198.011261 244.966721,194.362244 
	C246.004623,193.317673 247.174240,192.403961 248.671112,191.369141 
	C251.393021,190.520905 253.727234,189.733749 256.061462,188.946609 
	C257.716675,190.588760 259.371918,192.230911 261.092468,193.937881 
	C256.626556,196.293304 252.870621,198.274261 249.026733,200.590515 
	C248.000015,201.387466 247.061234,201.849136 246.037079,202.636414 
M254.542953,194.143585 
	C254.838379,194.087936 255.133789,194.032303 255.429214,193.976669 
	C255.136383,193.909164 254.843552,193.841660 254.542953,194.143585 
M257.491913,192.537598 
	C257.491913,192.537598 257.468933,192.484924 257.491913,192.537598 
z"/>
<path fill="#0FDBE2" opacity="1.000000" stroke="none" 
	d="
M256.051666,188.962601 
	C253.727234,189.733749 251.393021,190.520905 248.372437,191.281006 
	C245.802734,190.019089 243.919403,188.784241 242.036072,187.549393 
	C240.772522,186.165665 239.508972,184.781937 238.112823,183.253006 
	C240.031525,182.486771 241.758331,181.797195 243.814667,181.024567 
	C247.945679,183.134399 251.747147,185.327271 255.556610,187.798325 
	C255.366837,188.232178 255.169067,188.387833 254.971283,188.543488 
	C255.330597,188.683029 255.689911,188.822586 256.049225,188.962128 
	C256.049225,188.962128 256.041870,188.978592 256.051666,188.962601 
z"/>
<path fill="#0ED2DB" opacity="1.000000" stroke="none" 
	d="
M256.036194,188.728912 
	C255.689911,188.822586 255.330597,188.683029 254.971283,188.543488 
	C255.169067,188.387833 255.366837,188.232178 255.771347,188.053619 
	C255.978088,188.030731 256.023163,188.495697 256.036194,188.728912 
z"/>
<path fill="#11C0CD" opacity="1.000000" stroke="none" 
	d="
M112.086899,209.384094 
	C113.221046,209.304123 114.407166,209.592926 115.842148,209.997330 
	C116.091019,210.112930 116.109344,210.424500 116.091682,210.822571 
	C116.196884,211.479797 116.319748,211.738937 116.442612,211.998077 
	C116.645912,211.635925 116.849213,211.273788 117.052521,210.911652 
	C118.708435,214.645325 120.364349,218.379013 122.050766,222.491638 
	C120.953842,223.579468 119.826408,224.288345 118.319809,224.999512 
	C116.006721,219.918823 114.072792,214.835831 112.086899,209.384094 
z"/>
<path fill="#11C0CD" opacity="1.000000" stroke="none" 
	d="
M234.005325,206.070023 
	C234.648346,207.863693 234.153000,211.334290 237.826401,208.663940 
	C238.209122,209.252350 238.591843,209.840744 238.985748,210.740509 
	C237.517731,214.864700 236.038544,218.677536 234.336914,222.753052 
	C232.308990,223.672867 230.503494,224.330002 228.319641,224.988068 
	C228.853943,221.766724 229.766586,218.544434 230.660812,214.622467 
	C231.027161,212.919189 231.411911,211.915604 232.069611,210.708710 
	C232.542587,209.640045 232.742615,208.774689 232.986816,207.630981 
	C233.355774,206.925095 233.680557,206.497559 234.005325,206.070023 
z"/>
<path fill="#12ACBE" opacity="1.000000" stroke="none" 
	d="
M123.955971,235.283722 
	C124.091660,235.256668 124.377327,235.436172 124.805878,235.826675 
	C124.667824,235.855209 124.386887,235.672729 123.955971,235.283722 
z"/>
<path fill="#22CEDF" opacity="1.000000" stroke="none" 
	d="
M152.886459,214.051178 
	C150.345596,209.694351 147.804718,205.337540 144.763504,200.122787 
	C143.078537,202.575531 141.961533,204.201508 140.967422,205.648605 
	C136.995346,202.122437 133.240509,198.789108 129.171234,194.944061 
	C130.699524,192.365601 132.542282,190.298874 134.649277,187.935776 
	C132.960449,187.935776 131.846848,187.935776 130.733246,187.935776 
	C130.508331,187.468063 130.283432,187.000366 130.213211,185.999619 
	C130.289948,184.200531 130.244202,182.931519 130.128693,181.668900 
	C129.510208,174.907928 130.624817,168.708633 135.859009,164.219177 
	C134.272858,169.557220 132.697540,174.494553 137.341660,178.975342 
	C143.356293,176.767838 148.641464,172.281784 154.462036,176.302780 
	C155.865952,174.610123 156.936859,173.318970 158.012970,172.463593 
	C158.718460,176.582352 159.009476,180.410355 160.247162,183.902878 
	C161.256454,186.750992 163.397614,189.197998 165.205322,192.073547 
	C165.917221,192.548462 166.460724,192.772690 167.002106,192.998459 
	C167.000000,193.000000 167.003265,192.994537 167.073608,193.300293 
	C167.779449,194.057831 168.414932,194.509628 169.035843,194.982422 
	C169.021255,195.003403 169.035858,194.959259 169.094772,195.271225 
	C169.789856,196.048965 170.426025,196.514740 171.259995,197.099121 
	C171.704849,197.411926 171.892929,197.652252 172.029785,198.287231 
	C172.698380,199.418640 173.359238,200.201523 174.013306,200.992249 
	C174.006531,201.000076 174.009308,200.986176 174.134308,201.185883 
	C174.455856,201.636398 174.694153,201.837799 175.201477,202.166077 
	C179.132080,198.643448 182.982224,195.076202 186.471680,191.185471 
	C188.023941,189.454697 188.849091,187.071762 190.265244,184.761566 
	C195.524979,184.696182 200.524933,184.825684 205.521454,185.036682 
	C206.486481,185.077438 207.873474,185.109039 208.322205,185.704880 
	C210.541794,188.652084 213.274002,187.107697 216.003082,187.200409 
	C220.737213,187.361252 221.314743,182.941345 224.051147,181.404099 
	C223.495361,183.676895 222.608368,185.534439 222.492294,187.438965 
	C222.355865,189.677444 222.888596,191.956696 223.013824,194.524017 
	C218.693405,198.331039 214.490265,201.832306 210.107239,205.483444 
	C209.264557,203.881760 208.553879,202.530991 207.360916,200.263550 
	C205.675156,203.213242 204.681335,205.643753 203.084915,207.576523 
	C200.921967,210.195267 200.983047,214.965179 196.061859,214.758148 
	C195.198181,213.914230 194.401611,213.389328 193.605011,212.864410 
	C193.057068,214.243179 192.509125,215.621948 191.631119,216.904205 
	C188.248260,212.141418 184.053329,210.990601 178.591858,211.712540 
	C173.714081,212.357285 168.558777,212.569366 163.764496,211.682602 
	C159.471436,210.888565 156.085129,211.251709 152.886459,214.051178 
M175.633606,206.104919 
	C175.554306,205.703568 175.475021,205.302231 175.395721,204.900879 
	C175.132690,205.019455 174.869659,205.138031 174.606628,205.256607 
	C174.836151,205.641403 175.065689,206.026199 175.633606,206.104919 
z"/>
<path fill="#16A0B3" opacity="1.000000" stroke="none" 
	d="
M186.953735,136.057251 
	C186.723724,132.170380 186.374084,128.284973 186.326691,124.395859 
	C186.309387,122.977783 186.676224,121.316986 187.466629,120.185059 
	C188.547485,118.637138 190.199951,117.488365 191.607391,116.168503 
	C191.836136,117.883125 192.064880,119.597733 192.313049,121.789993 
	C192.332489,122.267632 192.038116,122.479233 191.972458,122.909767 
	C190.093613,128.127853 191.355621,132.403046 194.074753,136.444153 
	C198.460571,142.962265 200.755890,150.033569 199.527161,158.242706 
	C195.999741,167.109375 188.834686,171.430923 180.518448,168.286499 
	C175.871765,166.529556 172.199203,162.196320 168.058868,158.594757 
	C167.984222,149.790924 167.783539,141.413620 167.930832,133.042435 
	C168.125748,121.965988 169.073074,110.797691 162.901535,100.768463 
	C161.938507,99.203491 160.278595,98.067375 158.940918,96.732948 
	C158.288345,95.382225 157.635773,94.031494 156.983200,92.680771 
	C164.090958,94.588097 168.268982,99.565285 171.605270,105.195480 
	C176.007767,112.624947 177.189850,120.989143 178.219009,129.462555 
	C178.772461,134.019257 180.896042,138.385254 182.759979,143.350098 
	C185.037720,144.445847 186.866623,145.028778 188.695526,145.611710 
	C188.908234,143.639954 189.292694,141.664795 189.253952,139.697998 
	C189.237091,138.842926 188.350464,138.004974 187.774323,136.922424 
	C187.442780,136.468536 187.195755,136.251465 186.963104,136.031525 
	C186.977463,136.028625 186.953735,136.057251 186.953735,136.057251 
z"/>
<path fill="#2AD3E1" opacity="1.000000" stroke="none" 
	d="
M168.087692,159.024002 
	C172.199203,162.196320 175.871765,166.529556 180.518448,168.286499 
	C188.834686,171.430923 195.999741,167.109375 199.825699,157.991287 
	C200.814850,154.538910 201.298004,151.605835 201.634140,149.565277 
	C204.489517,150.415924 207.131927,151.203140 209.774338,151.990341 
	C210.834335,154.401443 211.894348,156.812546 212.850220,159.820572 
	C212.099213,161.490067 211.474701,162.576904 210.801468,163.632690 
	C208.171021,167.757980 205.525177,171.873459 202.595459,175.909546 
	C201.811676,174.605301 201.317505,173.384109 201.268845,173.263870 
	C197.391693,172.542740 194.412430,171.988617 190.826370,171.321640 
	C183.148407,172.550507 174.558334,173.925354 165.968262,175.300217 
	C166.075394,175.625824 166.182526,175.951431 166.289658,176.277054 
	C164.547363,175.516403 162.805054,174.755753 160.949081,173.677582 
	C159.892853,172.915970 158.950317,172.471893 158.007767,172.027817 
	C156.936859,173.318970 155.865952,174.610123 154.462036,176.302780 
	C148.641464,172.281784 143.356293,176.767838 137.341324,178.516342 
	C135.886902,167.565536 139.259476,158.714508 146.752823,151.326767 
	C147.313629,150.773880 147.282990,149.621109 147.527298,148.747208 
	C147.527298,148.747208 147.923721,148.605545 148.501617,148.712189 
	C150.305542,146.485657 151.531586,144.152481 152.757645,141.819321 
	C152.757645,141.819321 152.675171,141.799515 153.026978,141.779358 
	C154.723373,140.883652 156.067963,140.008102 157.361710,139.165665 
	C157.361710,140.584351 157.361710,142.945862 157.361710,146.087204 
	C159.355835,145.650177 161.812820,145.111710 164.360001,144.553467 
	C164.752029,147.719574 165.096802,151.717117 165.822189,155.644348 
	C166.048309,156.868622 167.303558,157.902802 168.087692,159.024002 
z"/>
<path fill="#3CDAE3" opacity="1.000000" stroke="none" 
	d="
M168.058868,158.594757 
	C167.303558,157.902802 166.048309,156.868622 165.822189,155.644348 
	C165.096802,151.717117 164.752029,147.719574 164.360001,144.553467 
	C161.812820,145.111710 159.355835,145.650177 157.361710,146.087204 
	C157.361710,142.945862 157.361710,140.584351 157.361710,139.165665 
	C156.067963,140.008102 154.723373,140.883652 153.030060,141.737061 
	C157.283661,130.741898 161.065903,119.588776 159.947754,107.411911 
	C159.648209,104.150085 159.186172,100.903175 158.869827,97.191185 
	C160.278595,98.067375 161.938507,99.203491 162.901535,100.768463 
	C169.073074,110.797691 168.125748,121.965988 167.930832,133.042435 
	C167.783539,141.413620 167.984222,149.790924 168.058868,158.594757 
z"/>
<path fill="#16A0B4" opacity="1.000000" stroke="none" 
	d="
M145.083496,233.920685 
	C145.066574,234.668594 145.033600,235.443695 144.997803,236.606705 
	C143.872849,236.697968 142.750732,236.401306 141.280197,236.070038 
	C140.931778,236.035416 140.982483,236.013260 140.970596,235.671616 
	C140.154083,234.726196 139.349457,234.122421 138.544846,233.518631 
	C138.544846,233.518631 138.483597,233.485550 138.590485,233.077377 
	C133.770050,221.116577 128.842728,209.563950 123.915405,198.011322 
	C123.915405,198.011322 123.982651,198.004196 123.828255,197.806000 
	C123.364258,197.411835 123.054657,197.215866 122.745056,197.019897 
	C122.282448,196.469711 121.819832,195.919525 121.711029,195.092560 
	C123.353386,195.232727 124.641914,195.649658 125.930443,196.066589 
	C133.064606,200.611191 137.080429,207.236145 138.858246,215.762161 
	C138.529877,216.859863 138.159668,217.577454 137.764008,218.928894 
	C137.119049,224.644485 140.986847,232.167786 145.129730,233.939346 
	C145.129730,233.939346 145.067444,233.947876 145.083496,233.920685 
z"/>
<path fill="#16A0B3" opacity="1.000000" stroke="none" 
	d="
M147.211761,148.704819 
	C147.282990,149.621109 147.313629,150.773880 146.752823,151.326767 
	C139.259476,158.714508 135.886902,167.565536 136.967194,178.527740 
	C132.697540,174.494553 134.272858,169.557220 135.925140,163.850006 
	C136.543289,161.189972 137.374100,159.330551 137.612625,157.398026 
	C137.953720,154.634521 137.861649,151.817551 137.954544,149.023422 
	C137.954544,147.267776 137.954544,145.512131 137.954544,142.977219 
	C141.411255,145.175018 144.153748,146.918732 147.211761,148.704819 
z"/>
<path fill="#4EC2CF" opacity="1.000000" stroke="none" 
	d="
M137.844162,149.382629 
	C137.861649,151.817551 137.953720,154.634521 137.612625,157.398026 
	C137.374100,159.330551 136.543289,161.189972 135.910889,163.451233 
	C130.624817,168.708633 129.510208,174.907928 130.128693,181.668900 
	C130.244202,182.931519 130.289948,184.200531 130.129456,185.746948 
	C127.250420,180.900345 127.595383,175.739960 129.647400,170.526352 
	C132.370026,163.608887 135.040756,156.670975 137.844162,149.382629 
z"/>
<path fill="#32A9BD" opacity="1.000000" stroke="none" 
	d="
M123.842331,198.416626 
	C128.842728,209.563950 133.770050,221.116577 138.572998,233.047272 
	C131.790070,225.676636 129.613220,215.864716 126.112999,206.660263 
	C125.597954,205.305893 124.967125,203.995544 124.171745,202.376862 
	C123.892166,200.999908 123.830719,199.910919 123.842331,198.416626 
z"/>
<path fill="#000000" opacity="1.000000" stroke="none" 
	d="
M187.858871,137.159241 
	C188.350464,138.004974 189.237091,138.842926 189.253952,139.697998 
	C189.292694,141.664795 188.908234,143.639954 188.695526,145.611710 
	C186.866623,145.028778 185.037720,144.445847 183.057251,143.539825 
	C184.029022,140.880020 185.152344,138.543304 186.614700,136.131927 
	C186.953735,136.057251 186.977463,136.028625 187.016357,136.284698 
	C187.323135,136.746933 187.591003,136.953094 187.858871,137.159241 
z"/>
<path fill="#11E5EA" opacity="1.000000" stroke="none" 
	d="
M126.171906,195.826279 
	C124.641914,195.649658 123.353386,195.232727 121.724579,194.818451 
	C118.995689,193.054886 119.957085,192.238754 122.257240,192.049469 
	C124.206848,191.889038 126.306732,192.378052 128.086975,191.800018 
	C129.074722,191.479324 129.543777,189.561111 130.489929,188.149353 
	C131.846848,187.935776 132.960449,187.935776 134.649277,187.935776 
	C132.542282,190.298874 130.699524,192.365601 128.940140,194.704742 
	C128.153458,195.180099 127.283409,195.383026 126.171906,195.826279 
z"/>
<path fill="#3CDAE3" opacity="1.000000" stroke="none" 
	d="
M152.456558,141.974152 
	C151.531586,144.152481 150.305542,146.485657 148.681183,148.821991 
	C149.573746,146.593079 150.864609,144.361023 152.456558,141.974152 
z"/>
<path fill="#0FDBE2" opacity="1.000000" stroke="none" 
	d="
M113.198822,199.669525 
	C111.954147,199.094772 110.698952,198.161911 109.460983,196.862213 
	C110.714912,197.434067 111.951599,198.372742 113.198822,199.669525 
z"/>
<path fill="#334041" opacity="1.000000" stroke="none" 
	d="
M192.038116,122.479233 
	C192.038116,122.479233 192.332489,122.267632 192.466156,122.142738 
	C193.056442,122.476540 193.513077,122.935226 194.036331,123.645599 
	C194.102951,123.897285 193.997833,124.001884 193.844879,124.026566 
	C193.691910,124.051239 193.488403,124.004318 193.315796,123.690598 
	C192.774826,123.077660 192.406479,122.778442 192.038116,122.479233 
z"/>
<path fill="#32A9BD" opacity="1.000000" stroke="none" 
	d="
M122.863319,197.291656 
	C123.054657,197.215866 123.364258,197.411835 123.825027,197.839645 
	C123.644653,197.902130 123.313110,197.732773 122.863319,197.291656 
z"/>
<path fill="#25D0DF" opacity="1.000000" stroke="none" 
	d="
M161.062759,173.995087 
	C162.805054,174.755753 164.547363,175.516403 166.289658,176.277054 
	C166.182526,175.951431 166.075394,175.625824 165.968262,175.300217 
	C174.558334,173.925354 183.148407,172.550507 190.826370,171.321640 
	C194.412430,171.988617 197.391693,172.542740 201.268845,173.263870 
	C201.317505,173.384109 201.811676,174.605301 202.846802,176.160843 
	C211.523911,176.021484 218.449585,170.235657 220.744034,162.215851 
	C221.187195,160.666855 222.289474,159.306427 223.087692,157.859009 
	C223.378937,158.336838 223.670181,158.814651 224.002869,160.029999 
	C224.250061,162.701538 224.654861,164.638885 224.622330,166.568878 
	C224.541153,171.384247 224.261200,176.196259 224.061035,181.009628 
	C221.314743,182.941345 220.737213,187.361252 216.003082,187.200409 
	C213.274002,187.107697 210.541794,188.652084 208.322205,185.704880 
	C207.873474,185.109039 206.486481,185.077438 205.521454,185.036682 
	C200.524933,184.825684 195.524979,184.696182 189.927063,184.749695 
	C188.879028,184.917206 188.430130,184.873276 187.896805,184.542511 
	C186.876251,184.486938 185.940125,184.718185 184.603058,184.998779 
	C174.710876,187.753723 164.741837,182.314377 161.062759,173.995087 
z"/>
<path fill="#34D9E3" opacity="1.000000" stroke="none" 
	d="
M191.972458,122.909760 
	C192.406479,122.778442 192.774826,123.077660 193.249222,123.890388 
	C193.489227,124.718338 193.720688,124.829102 194.049667,124.736191 
	C197.998276,130.630310 202.081985,136.440140 205.834351,142.456665 
	C207.527832,145.171997 208.561340,148.298920 209.834305,151.614716 
	C207.131927,151.203140 204.489517,150.415924 201.634140,149.565277 
	C201.298004,151.605835 200.814850,154.538910 200.033142,157.723419 
	C200.755890,150.033569 198.460571,142.962265 194.074753,136.444153 
	C191.355621,132.403046 190.093613,128.127853 191.972458,122.909760 
z"/>
<path fill="#0EA1B3" opacity="1.000000" stroke="none" 
	d="
M223.075897,157.497223 
	C222.289474,159.306427 221.187195,160.666855 220.744034,162.215851 
	C218.449585,170.235657 211.523911,176.021484 203.136383,176.243896 
	C205.525177,171.873459 208.171021,167.757980 210.801468,163.632690 
	C211.474701,162.576904 212.099213,161.490067 213.003021,160.143829 
	C215.107361,158.517273 217.121017,157.338531 218.763443,155.770859 
	C221.257065,153.390762 222.601562,153.609955 223.075897,157.497223 
z"/>
<path fill="#000000" opacity="1.000000" stroke="none" 
	d="
M227.974152,192.638306 
	C227.218781,193.067459 226.463409,193.496643 225.199554,193.578094 
	C224.505005,192.326996 223.926666,191.280807 224.195251,190.542908 
	C226.265366,184.855484 227.917160,179.175964 227.045044,172.969498 
	C226.785873,171.124985 227.550110,169.136673 227.845398,167.214264 
	C229.314529,167.787689 230.783676,168.361130 232.563995,168.984100 
	C232.909897,173.394012 232.944626,177.754364 232.590332,182.727448 
	C230.792267,186.439545 229.383209,189.538925 227.974152,192.638306 
z"/>
<path fill="#4EC2CF" opacity="1.000000" stroke="none" 
	d="
M227.577362,166.980026 
	C227.550110,169.136673 226.785873,171.124985 227.045044,172.969498 
	C227.917160,179.175964 226.265366,184.855484 224.195251,190.542908 
	C223.926666,191.280807 224.505005,192.326996 224.866821,193.526077 
	C225.042587,193.821777 224.809372,193.897598 224.465622,194.003113 
	C223.791916,194.147827 223.461670,194.184372 223.131134,194.218277 
	C222.888596,191.956696 222.355865,189.677444 222.492294,187.438965 
	C222.608368,185.534439 223.495361,183.676895 224.051147,181.404099 
	C224.261200,176.196259 224.541153,171.384247 224.622330,166.568878 
	C224.654861,164.638885 224.250061,162.701538 224.061081,160.321747 
	C225.155014,162.165894 226.232193,164.455841 227.577362,166.980026 
z"/>
<path fill="#2B3C3D" opacity="1.000000" stroke="none" 
	d="
M194.011597,124.578400 
	C193.720688,124.829102 193.489227,124.718338 193.421844,124.204109 
	C193.488403,124.004318 193.691910,124.051239 193.792191,124.078735 
	C193.892471,124.106239 193.973526,124.420601 194.011597,124.578400 
z"/>
<path fill="#2B3E40" opacity="1.000000" stroke="none" 
	d="
M228.375122,192.618591 
	C229.383209,189.538925 230.792267,186.439545 232.470306,183.135391 
	C233.278320,183.584946 233.817337,184.239273 234.690750,184.917847 
	C237.113663,185.749313 239.202148,186.556519 241.663361,187.456558 
	C243.919403,188.784241 245.802734,190.019089 247.984756,191.342087 
	C247.174240,192.403961 246.004623,193.317673 244.966721,194.362244 
	C241.340973,198.011261 237.760651,201.705444 234.084198,205.726242 
	C233.680557,206.497559 233.355774,206.925095 232.757660,207.874084 
	C232.255112,209.234375 232.025894,210.073196 231.796661,210.912018 
	C231.411911,211.915604 231.027161,212.919189 230.584930,214.239670 
	C229.916962,215.028305 229.306458,215.500031 228.233124,215.738525 
	C226.883713,213.072968 225.997131,210.640656 225.110535,208.208344 
	C226.762009,204.363480 228.309158,200.468933 230.107544,196.694061 
	C231.052902,194.709778 232.109467,193.038712 228.375122,192.618591 
z"/>
<path fill="#334041" opacity="1.000000" stroke="none" 
	d="
M203.148132,106.747330 
	C202.678787,107.107658 202.436142,107.306496 202.093704,107.743561 
	C201.955338,107.934708 201.493774,107.959038 201.263123,107.963181 
	C202.065598,107.005653 203.098694,106.043991 204.494293,105.112984 
	C204.856812,105.143646 204.886124,105.512459 204.875336,105.696762 
	C204.355103,106.100281 203.845657,106.319504 203.148132,106.747330 
z"/>
<path fill="#20CCDD" opacity="1.000000" stroke="none" 
	d="
M152.930267,214.411407 
	C156.085129,211.251709 159.471436,210.888565 163.764496,211.682602 
	C168.558777,212.569366 173.714081,212.357285 178.591858,211.712540 
	C184.053329,210.990601 188.248260,212.141418 191.642700,217.301605 
	C192.674911,220.240021 193.365494,222.684525 194.056076,225.129044 
	C193.031372,225.597122 191.714798,225.805023 191.028595,226.574829 
	C185.963211,232.257431 179.347717,234.170883 172.360596,232.714142 
	C168.308731,231.869370 164.174255,229.257141 161.126205,226.342865 
	C157.779968,223.143494 155.639771,218.682755 152.930267,214.411407 
z"/>
<path fill="#000000" opacity="1.000000" stroke="none" 
	d="
M212.074188,216.120575 
	C211.748550,218.952026 212.256027,222.273819 210.934525,224.519135 
	C207.541214,230.284515 203.336273,235.572189 200.127884,240.101944 
	C192.948990,239.574081 187.168686,239.149048 181.231232,238.361023 
	C183.946838,236.584366 186.819580,235.170715 190.166031,233.388580 
	C191.117416,232.690430 191.595108,232.360764 192.072784,232.031097 
	C192.072784,232.031082 192.007507,232.016083 192.395538,232.011627 
	C197.881790,230.589828 197.847824,227.341583 196.002716,223.299576 
	C195.030396,221.169525 194.330994,218.914902 193.508362,216.716537 
	C193.751389,216.629303 193.994431,216.542068 194.237457,216.454834 
	C196.292770,219.668045 198.348068,222.881256 200.871857,226.826859 
	C203.154053,224.667099 205.090759,222.834290 207.006500,220.999115 
	C206.985550,220.996735 206.990356,221.038345 207.260773,220.969025 
	C207.703583,220.584457 207.875992,220.269211 208.275604,219.894867 
	C208.794540,219.655350 208.946121,219.393723 209.288086,218.991226 
	C210.437119,217.994553 211.255646,217.057556 212.074188,216.120575 
z"/>
<path fill="#34D9E3" opacity="1.000000" stroke="none" 
	d="
M207.027466,221.001495 
	C205.090759,222.834290 203.154053,224.667099 200.871857,226.826859 
	C198.348068,222.881256 196.292770,219.668045 194.237457,216.454834 
	C193.994431,216.542068 193.751389,216.629303 193.508362,216.716537 
	C194.330994,218.914902 195.030396,221.169525 196.002716,223.299576 
	C197.847824,227.341583 197.881790,230.589828 192.397430,232.045074 
	C192.833435,229.938324 193.655594,227.793701 194.266907,225.389053 
	C193.365494,222.684525 192.674911,220.240021 191.972748,217.398117 
	C192.509125,215.621948 193.057068,214.243179 193.605011,212.864410 
	C194.401611,213.389328 195.198181,213.914230 196.098724,215.100037 
	C199.620193,222.707047 199.835434,222.815063 206.544006,220.991455 
	C206.693222,220.950882 206.865784,220.996231 207.027466,221.001495 
z"/>
<path fill="#34D9E3" opacity="1.000000" stroke="none" 
	d="
M191.763367,232.055145 
	C191.595108,232.360764 191.117416,232.690430 190.321732,233.078247 
	C190.487137,232.784012 190.970535,232.431610 191.763367,232.055145 
z"/>
<path fill="#16A0B4" opacity="1.000000" stroke="none" 
	d="
M169.943054,237.594315 
	C169.749329,237.728928 169.417297,237.661438 169.001831,237.324738 
	C169.271225,237.016693 169.566666,237.128937 169.943054,237.594315 
z"/>
<path fill="#000000" opacity="1.000000" stroke="none" 
	d="
M224.879944,208.502594 
	C225.997131,210.640656 226.883713,213.072968 227.955872,215.834442 
	C224.654099,234.158295 213.714493,245.226044 196.175903,250.653137 
	C195.537872,251.008026 195.095947,251.052002 194.330353,251.174591 
	C193.946930,250.692123 193.887177,250.131042 193.922867,249.295898 
	C203.765335,244.928558 211.018951,237.943192 215.920044,228.793472 
	C219.343170,222.402924 221.774826,215.481277 224.879944,208.502594 
z"/>
<path fill="#08FAFB" opacity="1.000000" stroke="none" 
	d="
M207.006500,220.999115 
	C206.865784,220.996231 206.693222,220.950882 206.544006,220.991455 
	C199.835434,222.815063 199.620193,222.707047 196.165802,215.419037 
	C200.983047,214.965179 200.921967,210.195267 203.084915,207.576523 
	C204.681335,205.643753 205.675156,203.213242 207.360916,200.263550 
	C208.553879,202.530991 209.264557,203.881760 210.107239,205.483444 
	C214.490265,201.832306 218.693405,198.331039 223.013840,194.524017 
	C223.461670,194.184372 223.791916,194.147827 224.369598,194.079346 
	C224.367661,195.241928 224.435211,196.640060 223.816284,197.591736 
	C220.126129,203.265854 216.277466,208.836899 212.025726,214.594513 
	C210.698822,216.181305 209.828201,217.616104 208.957581,219.050903 
	C208.946121,219.393723 208.794540,219.655350 208.033127,220.003510 
	C207.372406,220.460266 207.181381,220.749298 206.990356,221.038345 
	C206.990356,221.038345 206.985550,220.996735 207.006500,220.999115 
z"/>
<path fill="#34D9E3" opacity="1.000000" stroke="none" 
	d="
M209.288086,218.991226 
	C209.828201,217.616104 210.698822,216.181305 211.801727,214.861603 
	C212.039993,215.167374 212.045944,215.358047 212.063049,215.834641 
	C211.255646,217.057556 210.437119,217.994553 209.288086,218.991226 
z"/>
<path fill="#32A9BD" opacity="1.000000" stroke="none" 
	d="
M138.677551,233.781464 
	C139.349457,234.122421 140.154083,234.726196 140.964630,235.698395 
	C140.250458,235.392639 139.530365,234.718460 138.677551,233.781464 
z"/>
<path fill="#32A9BD" opacity="1.000000" stroke="none" 
	d="
M145.060547,233.584457 
	C140.986847,232.167786 137.119049,224.644485 137.883102,219.231339 
	C140.348862,223.676483 142.670105,228.453033 145.060547,233.584457 
z"/>
<path fill="#0ED2DB" opacity="1.000000" stroke="none" 
	d="
M116.809448,210.878510 
	C116.849213,211.273788 116.645912,211.635925 116.442612,211.998077 
	C116.319748,211.738937 116.196884,211.479797 116.081070,210.978271 
	C116.088127,210.735870 116.566391,210.845352 116.809448,210.878510 
z"/>
<path fill="#11C0CD" opacity="1.000000" stroke="none" 
	d="
M116.321091,209.020844 
	C116.194672,208.842010 116.345963,208.557266 116.795601,208.187286 
	C116.888161,208.355652 116.723106,208.626617 116.321091,209.020844 
z"/>
<path fill="#0FDBE2" opacity="1.000000" stroke="none" 
	d="
M254.546844,193.958878 
	C254.843552,193.841660 255.136383,193.909164 255.429214,193.976654 
	C255.133789,194.032303 254.838379,194.087936 254.546844,193.958878 
z"/>
<path fill="#0FDBE2" opacity="1.000000" stroke="none" 
	d="
M257.480408,192.511261 
	C257.468933,192.484924 257.491913,192.537598 257.480408,192.511261 
z"/>
<path fill="#1D9EB0" opacity="1.000000" stroke="none" 
	d="
M232.069611,210.708710 
	C232.025894,210.073196 232.255112,209.234375 232.713470,208.152435 
	C232.742615,208.774689 232.542587,209.640045 232.069611,210.708710 
z"/>
<path fill="#08FAFB" opacity="1.000000" stroke="none" 
	d="
M187.981232,184.829346 
	C188.430130,184.873276 188.879028,184.917206 189.666107,184.972992 
	C188.849091,187.071762 188.023941,189.454697 186.471680,191.185471 
	C182.982224,195.076202 179.132080,198.643448 175.085419,201.959808 
	C174.546616,201.319733 174.302368,201.122696 174.009308,200.986176 
	C174.009308,200.986176 174.006531,201.000076 173.972443,200.675385 
	C173.299606,199.546707 172.660828,198.742706 172.022049,197.938721 
	C171.892929,197.652252 171.704849,197.411926 171.115784,196.844193 
	C170.194473,195.966858 169.615158,195.463058 169.035858,194.959259 
	C169.035858,194.959259 169.021255,195.003403 168.962631,194.680084 
	C168.270432,193.902695 167.636841,193.448608 167.003265,192.994537 
	C167.003265,192.994537 167.000000,193.000000 166.812286,192.774536 
	C166.095367,192.306992 165.566132,192.064926 165.036911,191.822845 
	C163.397614,189.197998 161.256454,186.750992 160.247162,183.902878 
	C159.009476,180.410355 158.718460,176.582352 158.012970,172.463593 
	C158.950317,172.471893 159.892853,172.915970 160.949081,173.677567 
	C164.741837,182.314377 174.710876,187.753723 184.976059,185.007721 
	C186.493729,184.921326 187.237488,184.875351 187.981232,184.829346 
z"/>
<path fill="#20CCDD" opacity="1.000000" stroke="none" 
	d="
M175.464417,206.257965 
	C175.065689,206.026199 174.836151,205.641403 174.606628,205.256607 
	C174.869659,205.138031 175.132690,205.019455 175.395721,204.900879 
	C175.475021,205.302231 175.554306,205.703568 175.464417,206.257965 
z"/>
<path fill="#20CCDD" opacity="1.000000" stroke="none" 
	d="
M172.029785,198.287231 
	C172.660828,198.742706 173.299606,199.546707 173.979218,200.667572 
	C173.359238,200.201523 172.698380,199.418640 172.029785,198.287231 
z"/>
<path fill="#20CCDD" opacity="1.000000" stroke="none" 
	d="
M167.073608,193.300293 
	C167.636841,193.448608 168.270432,193.902695 168.977219,194.659088 
	C168.414932,194.509628 167.779449,194.057831 167.073608,193.300293 
z"/>
<path fill="#20CCDD" opacity="1.000000" stroke="none" 
	d="
M169.094772,195.271225 
	C169.615158,195.463058 170.194473,195.966858 170.917999,196.725586 
	C170.426025,196.514740 169.789856,196.048965 169.094772,195.271225 
z"/>
<path fill="#20CCDD" opacity="1.000000" stroke="none" 
	d="
M165.205322,192.073547 
	C165.566132,192.064926 166.095367,192.306992 166.814392,192.772995 
	C166.460724,192.772690 165.917221,192.548462 165.205322,192.073547 
z"/>
<path fill="#20CCDD" opacity="1.000000" stroke="none" 
	d="
M174.134308,201.185883 
	C174.302368,201.122696 174.546616,201.319733 174.858139,201.783539 
	C174.694153,201.837799 174.455856,201.636398 174.134308,201.185883 
z"/>
<path fill="#2B3C3D" opacity="1.000000" stroke="none" 
	d="
M187.774323,136.922424 
	C187.591003,136.953094 187.323135,136.746933 187.002014,136.287598 
	C187.195755,136.251465 187.442780,136.468536 187.774323,136.922424 
z"/>
<path fill="#22CEDF" opacity="1.000000" stroke="none" 
	d="
M187.896805,184.542526 
	C187.237488,184.875351 186.493729,184.921326 185.376984,184.958374 
	C185.940125,184.718185 186.876251,184.486938 187.896805,184.542526 
z"/>
<path fill="#34D9E3" opacity="1.000000" stroke="none" 
	d="
M207.260773,220.969025 
	C207.181381,220.749298 207.372406,220.460266 207.805908,220.062592 
	C207.875992,220.269211 207.703583,220.584457 207.260773,220.969025 
z"/>
</svg>