<svg version="1.1" id="Layer_1" xmlns="http://www.w3.org/2000/svg" xmlns:xlink="http://www.w3.org/1999/xlink" x="0px" y="0px"
	 width="100%" viewBox="0 0 173 256" enable-background="new 0 0 173 256" xml:space="preserve">
<path fill="none" opacity="1.000000" stroke="none" 
	d="
M84.000000,257.000000 
	C57.015450,257.000000 30.530790,256.967377 4.046533,257.055573 
	C1.664754,257.063477 0.925924,256.666748 0.928651,254.049774 
	C1.015461,170.765106 1.019801,87.480324 0.916769,4.195697 
	C0.913202,1.312807 1.639353,0.925966 4.300732,0.930393 
	C59.768223,1.022662 115.235947,1.022936 170.703430,0.929772 
	C173.373474,0.925287 174.086227,1.325893 174.082703,4.199860 
	C173.980377,87.484489 173.984329,170.769272 174.072052,254.053940 
	C174.074814,256.681274 173.320877,257.061432 170.949341,257.054504 
	C142.133087,256.970551 113.316498,257.000000 84.000000,257.000000 
z"/>
<path fill="#FA6403" opacity="1.000000" stroke="none" 
	d="
M132.066437,112.195190 
	C131.907074,112.529037 131.887009,112.456802 131.922226,112.443939 
	C131.566055,113.358986 131.622025,114.458351 130.540588,115.431503 
	C126.469872,115.510590 123.119629,114.391502 120.285751,111.886383 
	C119.416115,111.117638 118.473877,110.351906 117.336105,110.149429 
	C110.092979,108.860466 105.330414,103.821320 100.153564,98.770866 
	C99.267113,97.227242 99.561089,95.614471 98.192657,94.283539 
	C97.930305,94.043419 97.922600,94.064545 97.911133,94.062714 
	C93.589905,94.393440 90.003853,92.899162 86.782547,90.047409 
	C84.796448,88.289169 82.241554,87.556732 79.649216,86.843483 
	C75.380714,85.669083 72.513832,82.956184 71.845779,78.274788 
	C71.447205,75.481766 72.040314,73.383820 75.269363,72.234695 
	C84.954834,73.463440 92.566643,78.526283 100.295006,83.357590 
	C109.087967,88.854439 116.849899,96.181046 127.441826,98.513702 
	C129.007675,98.858543 130.316162,100.146767 131.921280,101.376518 
	C132.651398,102.592064 132.454117,103.597862 132.492249,104.943512 
	C132.368561,106.276375 132.032486,107.237549 132.469284,108.577232 
	C132.464386,109.922729 132.624069,110.917610 132.066437,112.195190 
z"/>
<path fill="#F84907" opacity="1.000000" stroke="none" 
	d="
M78.836823,133.512833 
	C81.910088,129.837906 84.900833,126.730545 88.038017,123.314400 
	C88.969810,122.438828 90.211037,121.279930 90.700340,121.968979 
	C92.972595,125.168816 97.287910,125.161583 99.668861,127.826607 
	C104.286552,132.995224 110.234825,134.136963 116.656540,134.261841 
	C118.438980,134.296494 120.445839,133.819168 121.058403,136.694305 
	C118.237457,143.324982 113.223167,147.905548 108.356041,152.985886 
	C105.316521,153.981552 102.542236,153.700317 100.560783,151.794098 
	C95.174171,146.612000 88.272194,144.295822 81.740967,141.264603 
	C79.832901,140.379059 78.316635,139.268906 77.774551,136.769943 
	C77.773407,136.188980 77.804855,135.963150 77.946274,135.426651 
	C78.264526,134.754349 78.494553,134.407349 78.836823,133.512833 
z"/>
<path fill="#FA7503" opacity="1.000000" stroke="none" 
	d="
M88.750015,54.250061 
	C88.803604,51.040249 92.093582,49.631821 92.084511,46.407578 
	C94.806267,44.468391 96.255249,46.618206 97.417633,48.160713 
	C99.803223,51.326412 102.547409,53.580021 106.534889,54.424583 
	C109.360916,55.023155 110.943573,57.830311 113.760262,59.280304 
	C114.229355,59.638657 114.419159,59.777946 114.857887,60.164192 
	C116.742973,62.643837 118.913063,64.236992 121.555359,65.795036 
	C123.191246,69.911140 126.505013,72.908844 127.053383,77.588470 
	C127.272583,78.234024 127.478508,78.479088 127.902046,78.846527 
	C128.095444,78.989250 128.026016,78.986183 128.031189,78.951828 
	C128.747772,79.843704 128.413162,80.930885 128.518051,82.338745 
	C128.797638,83.972076 128.693344,85.108047 127.238312,85.478035 
	C125.746063,85.857491 124.373505,85.097321 123.941093,83.878433 
	C122.865517,80.846626 120.632118,81.000885 118.036995,80.778671 
	C110.104347,80.099419 103.830864,75.871895 98.360291,70.434296 
	C96.935471,69.018066 95.624741,67.752808 93.750130,66.888519 
	C87.744865,64.119797 86.607361,61.221054 88.750015,54.250061 
z"/>
<path fill="#F73608" opacity="1.000000" stroke="none" 
	d="
M100.016541,160.757599 
	C94.953590,166.652252 89.913277,172.326385 83.390091,176.916473 
	C81.452438,178.140503 79.780098,177.565582 79.396759,176.046906 
	C78.067833,170.782135 73.611862,168.345566 69.793137,165.773285 
	C65.534882,162.904922 61.647293,159.642181 57.380219,156.277710 
	C59.544750,149.948471 65.661316,147.164261 69.628815,142.069153 
	C74.232582,148.728119 81.977791,151.143280 87.853355,155.943344 
	C89.361084,157.175095 91.406212,156.308350 93.177948,156.546616 
	C95.868500,156.908463 97.878609,157.907715 95.577896,161.098755 
	C96.838753,159.699234 98.097107,158.209412 100.016541,160.757599 
z"/>
<path fill="#F95305" opacity="1.000000" stroke="none" 
	d="
M121.401337,136.899811 
	C120.579109,136.618240 119.948616,135.739410 119.585541,135.838684 
	C112.314240,137.826782 104.197258,135.479553 98.771065,129.702316 
	C98.545517,129.462189 98.360626,129.176208 98.109406,128.969055 
	C96.247284,127.433624 93.813522,126.735115 91.686691,126.659470 
	C88.675499,126.552383 91.773270,122.325104 88.419823,122.976936 
	C90.332321,119.560799 93.563896,116.844490 95.072853,112.512383 
	C95.615715,112.022514 96.054062,111.900887 96.814087,111.655991 
	C100.708717,110.132164 103.591026,111.687126 106.224808,113.816055 
	C108.027939,115.273544 110.224632,116.167618 111.961037,117.506966 
	C116.868469,121.292259 122.864922,121.621094 128.577850,123.808784 
	C126.887535,128.538162 124.775223,132.912323 121.401337,136.899811 
z"/>
<path fill="#FA6902" opacity="1.000000" stroke="none" 
	d="
M132.135071,101.604408 
	C124.306236,99.731079 116.871643,97.712563 110.186317,92.840538 
	C99.707642,85.204041 88.816292,77.972923 76.201004,73.293144 
	C75.425865,72.752724 74.980598,72.383354 74.925522,71.461243 
	C75.977249,69.995422 76.927597,68.812988 78.024628,67.328842 
	C79.659752,66.176834 81.231369,65.789917 82.908623,66.331146 
	C90.200317,68.684036 98.122780,69.353676 103.405350,76.378998 
	C105.292221,78.888344 108.692650,80.792107 112.051216,81.951958 
	C118.604462,84.215057 124.510933,87.861557 130.948303,91.111839 
	C131.383743,91.878235 131.579941,92.340408 131.821228,93.188370 
	C131.911896,93.554810 131.904099,93.523239 131.888596,93.528137 
	C133.047455,96.020477 132.337296,98.642235 132.135071,101.604408 
z"/>
<path fill="#F95307" opacity="1.000000" stroke="none" 
	d="
M44.332245,101.368279 
	C44.190468,99.546158 45.640022,99.147263 46.618900,98.060005 
	C47.432629,97.581596 47.486786,96.991081 47.772915,96.193115 
	C47.916389,95.943474 47.968632,96.013763 47.931850,95.989815 
	C48.180222,95.782936 48.439934,95.569435 48.812206,95.110977 
	C48.954075,94.901230 49.011929,94.978874 48.976242,94.947113 
	C49.427830,94.573395 50.017181,94.512794 50.766273,94.122955 
	C52.081787,92.678902 53.192261,91.439240 54.593674,90.078346 
	C59.114380,87.739807 62.039776,89.721794 64.828964,92.816391 
	C69.587944,98.096451 74.820412,102.631157 82.025558,104.520020 
	C84.622124,105.200722 87.376602,103.498161 89.903015,105.750923 
	C87.389519,110.714767 83.254517,114.105026 79.219086,117.878067 
	C78.708641,117.797577 78.544334,117.730835 78.215340,117.873001 
	C78.050652,118.081909 78.009949,118.007576 78.042274,118.034988 
	C76.599052,118.913307 74.859604,119.778419 73.455849,118.561142 
	C69.278587,114.938835 63.421803,114.618790 59.246918,110.852577 
	C56.484463,108.360519 53.038231,106.596779 49.226524,105.731377 
	C47.087845,105.245827 45.393272,103.853867 44.332245,101.368279 
z"/>
<path fill="#F73E06" opacity="1.000000" stroke="none" 
	d="
M100.388412,160.935120 
	C96.961411,159.205475 96.422951,162.851028 94.276871,163.830688 
	C93.445480,162.063156 92.957390,160.140732 95.710396,158.564850 
	C88.088615,160.560410 83.375153,156.746170 79.087616,152.193710 
	C77.448868,150.453720 75.361748,150.108261 73.343124,149.492416 
	C69.709152,148.383759 67.714981,146.598892 69.931000,142.282257 
	C70.419037,141.321686 70.902901,140.720062 71.660004,140.011520 
	C72.211319,139.739731 72.462601,139.540970 72.829773,139.114334 
	C72.972473,138.920334 72.983353,138.989502 72.957176,138.966248 
	C73.611237,138.562790 74.288651,138.179352 74.795288,137.182434 
	C74.942215,136.930603 74.996544,137.000076 74.964386,136.969604 
	C76.187241,136.395599 77.028664,135.201569 78.659714,134.908615 
	C79.421310,140.412354 84.696510,140.828308 87.699631,141.452988 
	C92.102684,142.368835 95.273773,144.750305 98.285233,147.200195 
	C101.169914,149.546951 104.130615,151.343658 107.777382,152.890182 
	C105.595459,155.684036 103.144257,158.241196 100.388412,160.935120 
z"/>
<path fill="#F95C04" opacity="1.000000" stroke="none" 
	d="
M128.910706,123.590057 
	C126.567505,125.109001 125.039444,125.223099 122.099823,124.242416 
	C118.150673,122.924957 114.643600,121.185074 110.984680,119.364960 
	C109.072823,118.413925 107.022957,117.823990 105.635277,116.117172 
	C103.374649,113.336632 100.212883,113.004829 96.818024,112.519997 
	C96.075676,111.372993 96.534309,110.442955 96.771225,109.219215 
	C96.958069,108.917068 96.974800,108.994751 96.935844,109.002533 
	C97.480782,108.574852 97.486801,107.864357 97.915405,106.992813 
	C98.079422,106.039871 98.055367,105.359581 98.107010,104.346619 
	C99.305458,102.305931 99.420059,100.341476 99.923416,98.202126 
	C103.441483,98.639587 106.081863,99.998650 107.772018,103.033157 
	C108.869469,105.003525 110.873886,105.819885 113.094620,106.270622 
	C119.464546,107.563477 124.154579,112.267929 130.096771,115.095787 
	C131.037140,117.344124 129.756851,118.972710 129.687759,121.061531 
	C129.533173,121.962524 129.269287,122.540703 128.910706,123.590057 
z"/>
<path fill="#F62D07" opacity="1.000000" stroke="none" 
	d="
M56.978752,156.316849 
	C58.513638,155.893845 60.316483,153.655075 61.073257,155.483246 
	C63.502888,161.352646 70.045792,161.878387 73.831345,166.002472 
	C76.737167,169.168137 81.810143,170.554520 81.224724,176.243408 
	C81.206314,176.422256 82.036629,176.688446 82.775574,176.984802 
	C80.274101,180.308731 77.468330,183.561768 74.351501,186.957031 
	C71.081474,181.316971 64.160385,179.795532 60.594086,174.528641 
	C59.226334,172.508682 56.170998,172.479446 53.760544,171.959854 
	C52.303650,171.645828 50.698093,171.816055 50.123123,169.574005 
	C50.452232,164.050613 53.302082,160.158524 56.978752,156.316849 
z"/>
<path fill="#F84907" opacity="1.000000" stroke="none" 
	d="
M44.017456,101.329773 
	C51.034809,104.014969 57.883072,106.816208 64.186668,111.193680 
	C68.083099,113.899513 72.948730,115.686203 77.693665,118.041412 
	C75.136856,122.573296 70.029533,124.781593 66.313232,128.833923 
	C63.796677,125.745163 60.942825,123.622185 57.142143,123.068047 
	C51.214966,122.203857 47.733036,117.159767 42.724232,114.678886 
	C40.688747,113.670708 38.366718,113.108765 36.375736,111.293884 
	C37.864010,107.167297 40.986492,104.499977 44.017456,101.329773 
z"/>
<path fill="#FA6F05" opacity="1.000000" stroke="none" 
	d="
M131.149506,91.633873 
	C120.575470,89.426125 109.954208,85.659630 102.791847,78.587936 
	C95.593666,71.480865 86.813095,70.885498 78.541473,67.050049 
	C77.955765,66.046165 78.881859,65.804543 79.587524,65.362770 
	C80.232811,64.879257 80.502205,64.239998 80.756561,63.225727 
	C80.930038,62.921505 80.982796,62.969990 80.967598,62.937511 
	C81.334503,62.668240 81.747391,62.513714 82.468353,62.255196 
	C83.580872,58.723972 86.940361,57.163181 88.625572,54.059898 
	C88.338585,60.014771 90.733879,63.392742 96.736816,65.880363 
	C100.550133,67.460609 102.975571,72.501778 107.124519,74.453682 
	C111.657394,76.586212 115.743965,81.179039 121.822388,76.936661 
	C124.213844,75.267586 124.432915,78.699364 124.975235,80.442429 
	C125.441002,81.939430 124.292702,85.441200 128.444580,82.733383 
	C130.813339,83.730980 129.330368,86.410072 130.918381,88.275398 
	C131.609863,89.414604 131.480652,90.345482 131.149506,91.633873 
z"/>
<path fill="#F85A05" opacity="1.000000" stroke="none" 
	d="
M90.417664,105.899643 
	C89.930046,106.051819 89.711418,105.978554 89.604240,106.057190 
	C84.453072,109.836998 79.626541,106.468758 75.341942,104.591469 
	C71.154381,102.756683 67.037468,99.560692 64.333374,95.896660 
	C61.903893,92.604721 59.361725,90.809837 55.260582,90.031052 
	C56.709949,88.020279 58.535282,86.083435 60.667236,84.012573 
	C61.502804,83.532005 61.481956,82.931732 61.784904,82.174683 
	C61.921806,81.931671 61.995060,81.993988 61.962765,81.958267 
	C62.338490,81.654808 62.784264,81.511505 63.630722,81.526184 
	C70.304443,85.056953 76.914230,88.159264 82.856300,92.206596 
	C86.818871,94.905624 90.439133,97.129097 95.570862,96.758430 
	C95.265114,100.580841 91.614120,102.355629 90.417664,105.899643 
z"/>
<path fill="#F73B07" opacity="1.000000" stroke="none" 
	d="
M59.162758,134.573990 
	C53.963837,138.706116 51.012562,144.324112 46.404854,148.898041 
	C44.400894,149.482574 44.172100,148.157410 43.854595,147.091797 
	C42.128227,141.297897 38.531139,137.712021 32.312336,137.146622 
	C28.277185,136.779739 26.380480,134.614014 26.667244,130.173126 
	C26.491579,129.057022 26.490406,128.303116 26.779276,127.228745 
	C26.981256,126.907784 26.996151,127.007286 26.946404,127.014763 
	C27.456079,126.589531 27.487612,125.910698 27.872751,125.044418 
	C28.066906,124.477219 28.081816,124.178757 28.542080,123.429901 
	C29.419821,120.436050 30.653868,118.276855 32.533241,116.113388 
	C36.868870,117.198593 39.055935,120.954056 42.760410,122.881416 
	C48.234684,125.729538 52.943752,130.031570 59.045959,132.608246 
	C59.473942,133.345688 59.509830,133.816864 59.162758,134.573990 
z"/>
<path fill="#F72206" opacity="1.000000" stroke="none" 
	d="
M49.867432,169.510590 
	C52.793369,169.729980 55.580994,169.674210 58.351292,170.710510 
	C60.994511,171.699265 63.190353,172.600250 64.051781,175.495544 
	C64.529694,177.101837 65.787323,177.669525 67.386681,177.984131 
	C71.874405,178.866882 73.980049,181.777908 74.025055,186.691193 
	C74.000374,187.442596 73.834282,187.706711 73.311615,187.959885 
	C63.535728,197.320694 62.896915,197.341141 52.350075,188.762726 
	C51.835678,188.344315 51.190998,188.119400 50.278137,187.617477 
	C49.726933,187.311234 49.507046,187.187393 48.997284,186.819672 
	C48.343330,186.217758 48.045109,185.811356 47.680244,184.998611 
	C47.507313,184.128418 47.519413,183.617828 47.692802,182.737274 
	C48.332703,179.823959 47.524803,177.150757 48.710972,174.299362 
	C47.729282,172.266083 47.967083,170.869431 49.867432,169.510590 
z"/>
<path fill="#F62D07" opacity="1.000000" stroke="none" 
	d="
M82.778641,191.187408 
	C83.282402,190.447662 83.606842,190.003036 84.053925,189.306137 
	C87.616814,187.163101 90.899529,188.792801 92.498047,191.186890 
	C95.857727,196.218674 101.014305,197.683304 105.984917,199.774460 
	C108.074097,200.653381 110.560280,201.174164 110.139786,204.560760 
	C109.878166,204.848053 109.495598,204.993195 109.295135,205.034058 
	C108.411499,205.443726 107.721764,205.804855 107.212753,206.802444 
	C107.063995,207.052429 107.010399,207.021667 107.029686,207.046082 
	C105.965256,207.651993 104.980301,208.341568 104.246979,209.739929 
	C104.085739,209.996765 104.083344,210.085953 104.038765,210.087723 
	C103.386353,210.409302 102.848396,210.816879 102.179016,211.599243 
	C101.175446,212.523361 100.403481,213.198517 99.347961,214.000061 
	C95.976372,215.175674 93.374573,214.554184 90.825546,212.400330 
	C88.430138,210.376282 85.530853,208.866302 82.415497,208.364059 
	C78.445488,207.724045 76.649216,205.577911 76.388184,201.379852 
	C77.148376,198.193298 78.445900,195.541428 81.052574,193.311432 
	C81.738739,192.555893 82.243698,192.087814 82.778641,191.187408 
z"/>
<path fill="#F63107" opacity="1.000000" stroke="none" 
	d="
M26.432125,130.273346 
	C28.099819,133.583527 30.451221,134.971664 34.523300,135.332626 
	C41.697884,135.968613 46.056534,141.597519 45.958565,148.753479 
	C45.924950,151.298065 43.842640,152.487411 42.923050,154.735184 
	C38.755859,157.363907 34.230804,156.807419 29.909317,157.145065 
	C26.966898,157.374954 26.332031,154.149368 24.401436,152.252625 
	C24.099689,151.548431 24.031590,151.094315 23.872578,150.307327 
	C23.225992,147.606003 23.583746,145.207642 23.704430,142.401245 
	C23.539215,137.996506 23.889294,134.140930 26.432125,130.273346 
z"/>
<path fill="#F84107" opacity="1.000000" stroke="none" 
	d="
M59.344910,133.078888 
	C55.293987,133.505188 52.365791,132.976547 49.642700,129.851822 
	C47.268295,127.127213 43.468975,125.025490 40.360527,123.899284 
	C36.220837,122.399445 34.737331,119.853790 33.044968,116.271111 
	C32.818741,113.787102 34.745003,112.979362 36.018665,111.311691 
	C41.704689,108.767487 45.669777,113.064796 48.548828,115.771202 
	C52.544750,119.527504 57.019257,120.667709 61.693859,121.901253 
	C65.231712,122.834839 66.837616,124.540161 66.033974,128.515671 
	C65.974770,128.842453 65.529579,128.974625 65.300644,129.013412 
	C64.025269,129.673157 62.844116,130.147491 62.318375,131.750031 
	C61.978725,132.339249 61.761955,132.647385 61.285866,133.078217 
	C61.026546,133.200912 60.579140,133.421844 60.342995,133.420517 
	C60.106853,133.419189 59.787155,133.109131 59.344910,133.078888 
z"/>
<path fill="#F84107" opacity="1.000000" stroke="none" 
	d="
M127.987762,186.692841 
	C124.941734,190.312378 121.797340,193.569778 118.345093,196.964508 
	C109.808533,200.388336 104.969940,193.728180 99.064270,190.445709 
	C96.987228,189.291260 95.644432,186.973434 93.332321,185.786163 
	C91.029640,184.603760 90.256927,182.382355 92.617020,180.620483 
	C94.604744,179.136566 95.199883,176.210251 98.363197,175.626312 
	C104.440536,174.022537 109.139931,176.686905 113.392426,179.709503 
	C117.003304,182.276016 120.653976,184.111267 125.038582,184.563980 
	C126.211006,184.685028 127.227173,185.276962 127.987762,186.692841 
z"/>
<path fill="#F84907" opacity="1.000000" stroke="none" 
	d="
M128.391449,186.919250 
	C120.105759,187.953720 114.247131,183.134445 108.197983,179.269028 
	C105.459946,177.519379 102.886360,176.840027 99.430786,176.995544 
	C98.445419,176.361359 98.012131,175.667053 97.971695,174.371460 
	C98.072746,173.725555 98.176430,173.495941 98.628128,173.119034 
	C100.063705,172.984863 101.158119,173.019989 102.127670,171.784103 
	C102.934509,170.353348 104.416458,169.934937 104.857697,168.275818 
	C105.048332,167.672882 105.222580,167.395721 105.632965,167.035767 
	C106.155220,166.772003 106.414833,166.558792 106.787872,166.102539 
	C109.065102,163.640976 111.202377,161.390152 113.647575,159.005905 
	C114.170044,158.772491 114.384598,158.672485 114.927582,158.704803 
	C116.567726,160.377655 116.138542,161.974976 115.229195,163.441086 
	C113.917519,165.555832 114.477516,167.661911 116.165596,168.741058 
	C121.141525,171.922012 124.665886,178.050003 131.959503,176.799011 
	C133.084686,176.606033 134.182816,177.367737 135.003677,178.724915 
	C134.303528,182.736115 130.722107,184.114304 128.391449,186.919250 
z"/>
<path fill="#F97F09" opacity="1.000000" stroke="none" 
	d="
M121.782593,65.665009 
	C118.007355,66.791504 115.269089,65.630714 114.022507,61.360432 
	C106.205528,57.113297 97.773506,54.150734 92.457565,46.149078 
	C92.279510,45.692970 92.407692,45.345604 92.805031,44.859795 
	C93.965660,43.306179 93.128387,41.633030 93.924973,39.829102 
	C94.097771,39.480289 94.105698,39.536625 94.077950,39.542892 
	C94.475037,38.488281 94.563835,37.381683 94.492149,35.918983 
	C94.422310,34.914822 94.145355,34.290405 94.080772,33.288433 
	C94.134422,32.736805 94.183220,32.519367 94.420059,32.025536 
	C94.798523,31.633373 94.988937,31.517605 95.512878,31.379375 
	C105.433723,41.949951 114.542366,52.908104 121.782593,65.665009 
z"/>
<path fill="#F51D0D" opacity="1.000000" stroke="none" 
	d="
M48.553490,186.897202 
	C51.120087,185.867279 53.423809,185.787811 55.367092,188.061890 
	C60.417965,193.972595 62.958599,194.261978 69.455887,189.948090 
	C70.407982,189.315948 71.404053,188.750061 72.730400,188.090851 
	C72.148438,192.018951 68.059990,194.422150 67.391846,198.880249 
	C65.969635,200.122482 66.851295,201.618958 66.096062,203.156860 
	C65.926231,203.514969 65.905777,203.458969 65.933167,203.447189 
	C65.810555,203.917938 65.667885,204.402634 65.518059,205.268585 
	C65.517944,208.433624 65.453751,211.219940 65.688034,214.356094 
	C64.972816,218.034332 63.228161,217.210464 61.840389,215.301376 
	C59.093521,211.522675 55.849422,207.838913 54.249092,203.576004 
	C52.923710,200.045502 48.997044,197.659363 49.703266,192.969025 
	C49.650955,192.625076 49.321297,192.307236 49.214485,192.104721 
	C49.107670,191.902206 49.135414,192.048828 49.062828,192.066101 
	C48.052113,190.568497 48.685455,188.894852 48.553490,186.897202 
z"/>
<path fill="#F96407" opacity="1.000000" stroke="none" 
	d="
M147.431625,160.503540 
	C146.632126,162.554016 146.198318,164.435516 144.391037,165.894592 
	C141.707947,167.068207 139.673004,166.004639 138.375839,164.367386 
	C134.044724,158.900818 128.175735,156.479828 121.326843,154.965637 
	C120.869118,154.560287 120.715416,154.365265 120.458977,153.810852 
	C120.382057,153.203369 120.407875,152.955292 120.610580,152.377548 
	C122.107796,149.001816 124.550621,146.878067 127.022491,144.347107 
	C128.152756,143.161835 129.344986,142.530655 130.262680,141.611282 
	C132.173981,139.696457 134.045776,139.720703 135.758560,141.676086 
	C138.698593,145.032578 142.380722,146.964813 146.706558,147.743179 
	C149.316498,148.212799 150.425858,149.602570 149.808014,152.591797 
	C149.896576,153.212891 149.926361,153.488586 149.878922,154.173035 
	C148.171127,156.086517 147.975021,158.186584 147.431625,160.503540 
z"/>
<path fill="#F73909" opacity="1.000000" stroke="none" 
	d="
M97.702034,174.001526 
	C98.290459,174.695053 98.611870,175.434952 98.970078,176.585297 
	C95.553856,176.956940 95.691948,181.156113 92.967819,182.147583 
	C92.249741,182.408936 92.979073,183.464996 93.815559,183.909332 
	C99.810356,187.093643 104.691505,191.901932 110.555908,195.362152 
	C113.069649,196.845367 115.436295,195.221573 117.773781,196.877625 
	C115.550652,199.691345 113.064056,202.280899 110.227814,204.859253 
	C107.380638,201.292664 103.009880,201.479553 99.589134,199.768799 
	C97.688721,198.818359 95.198891,198.533096 94.197807,196.566177 
	C92.167198,192.576447 88.467300,191.019547 84.500244,189.156708 
	C87.981453,183.508865 92.578918,178.664124 97.702034,174.001526 
z"/>
<path fill="#F97009" opacity="1.000000" stroke="none" 
	d="
M150.054230,152.594498 
	C148.976761,148.582092 144.615585,150.956650 142.198090,149.047012 
	C139.567825,146.969315 136.179901,145.945877 134.064087,142.928421 
	C131.596573,139.409454 130.067047,144.383759 127.512177,143.972458 
	C128.393646,142.252060 129.608597,140.459747 130.983063,138.369751 
	C133.654922,136.138107 134.793777,133.401077 135.762451,130.162598 
	C135.934021,129.860947 135.997391,129.453186 136.077087,129.262878 
	C138.448151,125.440178 141.080994,125.828636 143.701752,128.588882 
	C145.867325,130.869720 148.450287,132.595062 151.092468,134.826416 
	C151.752304,137.176270 151.349121,139.233780 151.692841,141.620270 
	C152.494934,145.585648 151.451996,148.931763 150.054230,152.594498 
z"/>
<path fill="#F95305" opacity="1.000000" stroke="none" 
	d="
M135.412292,178.918060 
	C132.668793,177.531845 130.259827,180.029007 128.041794,179.304886 
	C121.888893,177.296204 117.317650,172.854050 112.835403,168.431091 
	C108.865547,164.513763 114.310425,162.677322 114.978745,159.409698 
	C114.587448,158.677353 114.432213,158.207458 114.730728,157.297791 
	C114.913391,156.947556 114.936508,156.931976 114.944839,156.920792 
	C115.411156,156.600311 115.943230,156.509537 116.648949,156.197693 
	C116.881729,155.828613 116.933212,155.658081 117.070808,155.234558 
	C117.542557,154.674530 117.978287,154.497391 118.818298,154.574890 
	C122.546265,161.751282 130.321365,163.861221 135.680603,169.217331 
	C136.387299,169.598312 136.790146,169.818085 137.463165,170.257599 
	C137.933945,170.585510 138.120132,170.720169 138.527130,171.119904 
	C139.095154,172.007965 139.162827,172.677353 139.073563,173.710938 
	C139.164841,176.487045 136.853485,177.218277 135.412292,178.918060 
z"/>
<path fill="#F95F04" opacity="1.000000" stroke="none" 
	d="
M95.955429,96.717209 
	C91.473007,99.940727 87.653999,99.699196 83.981209,95.605026 
	C81.160843,92.461082 77.094101,90.979843 73.293457,89.444496 
	C69.580231,87.944473 66.773178,85.604912 64.179367,82.306366 
	C63.787609,81.863785 63.569592,81.705917 63.625385,81.251320 
	C63.899200,80.954590 63.931252,80.878746 63.970375,80.891556 
	C64.448677,80.557701 64.991982,80.511238 65.697006,80.195602 
	C65.886475,80.006470 65.901825,79.892807 65.959030,79.896904 
	C66.136421,79.785507 66.256615,79.670013 66.282921,79.322769 
	C69.405975,76.995728 70.683846,72.888947 74.679504,71.209457 
	C75.276855,71.630592 75.526810,72.083328 75.887512,72.769798 
	C72.081779,76.195717 73.496262,83.206001 79.019089,84.168259 
	C86.368019,85.448692 90.771278,91.797043 97.790436,93.721672 
	C97.295914,94.849953 96.692177,95.639030 95.955429,96.717209 
z"/>
<path fill="#F6260A" opacity="1.000000" stroke="none" 
	d="
M24.090370,152.342987 
	C25.170612,151.279099 26.173431,150.555649 27.671106,149.475204 
	C27.210913,155.590347 30.065865,155.824417 34.588268,154.535934 
	C36.816837,153.900986 39.486797,154.815247 42.365822,155.042786 
	C41.178543,159.476593 39.582474,163.896103 37.912186,168.707550 
	C37.070847,170.942535 37.874966,172.944794 37.073063,175.171860 
	C36.886021,175.540421 36.878418,175.459549 36.918465,175.452774 
	C35.841473,177.541245 37.343903,180.108582 35.323822,182.059357 
	C31.941204,179.705246 31.753132,175.760101 29.334915,172.774078 
	C28.274864,170.960327 28.253927,169.110352 27.165598,167.259521 
	C26.917479,166.974655 27.042347,166.963486 27.049290,167.025787 
	C26.947744,166.948746 26.839258,166.809387 26.663101,166.413879 
	C26.232309,164.536392 24.867033,163.087906 25.527784,161.020325 
	C23.738123,159.716385 24.877100,158.060364 24.213890,156.444550 
	C21.712576,154.977264 24.219957,153.838165 24.090370,152.342987 
z"/>
<path fill="#F72206" opacity="1.000000" stroke="none" 
	d="
M76.115158,201.403961 
	C78.290192,204.566116 81.396461,206.148544 85.460472,206.894806 
	C90.372406,207.796768 93.422539,212.706680 98.738434,213.958801 
	C95.926498,217.359543 92.788589,220.592636 89.345276,223.968475 
	C83.957916,221.147110 77.033424,221.266449 73.727921,214.738403 
	C73.494675,213.950531 73.470390,213.480423 73.521507,212.660889 
	C74.211662,209.697205 75.480377,207.236710 75.776253,204.187439 
	C75.992134,203.186310 76.023170,202.471115 76.115158,201.403961 
z"/>
<path fill="#F85A05" opacity="1.000000" stroke="none" 
	d="
M136.264999,171.258377 
	C133.190475,170.412827 130.803436,169.125092 129.065613,166.698410 
	C127.981392,165.184418 126.480507,164.130341 124.631889,163.736176 
	C120.274765,162.807144 118.777069,159.895752 119.135765,155.089691 
	C119.625290,154.169174 120.000412,154.015732 120.719284,153.965973 
	C128.737198,152.222107 133.876694,156.662170 138.621048,161.584564 
	C140.135849,163.156219 141.800858,164.400833 143.776459,165.870255 
	C144.069534,166.044235 143.985992,166.532104 143.907455,166.766785 
	C142.509125,167.828369 141.930649,169.167725 141.218231,170.794540 
	C141.048141,171.057007 141.003143,170.999542 141.031296,171.023026 
	C140.348755,171.630035 139.707947,172.345505 138.358063,172.158112 
	C137.867493,172.000320 137.689178,171.996078 137.243408,171.985611 
	C136.817429,171.819656 136.658920,171.659943 136.264999,171.258377 
z"/>
<path fill="#F8810E" opacity="1.000000" stroke="none" 
	d="
M151.096802,134.853302 
	C146.981155,135.373657 144.600830,133.114471 142.472443,130.410980 
	C140.928574,128.449966 139.324768,126.778778 136.436340,128.985260 
	C138.543091,123.057693 139.635727,116.724693 140.872437,110.416840 
	C141.037857,109.573105 139.313370,108.572624 140.983810,108.091049 
	C142.498337,107.654419 143.348343,108.650383 144.011154,109.978050 
	C146.038361,114.038864 148.146347,118.035950 149.282928,122.495674 
	C149.838928,124.677261 151.109222,126.675041 151.004440,129.441376 
	C151.277954,131.044815 151.647324,132.236435 151.491699,133.807556 
	C151.451080,134.322281 151.416718,134.526550 151.096802,134.853302 
z"/>
<path fill="#F51D0D" opacity="1.000000" stroke="none" 
	d="
M73.724068,214.308868 
	C77.519249,216.234863 80.504105,219.418839 85.166328,219.766312 
	C86.929955,219.897751 88.339363,221.469955 88.962212,223.757050 
	C86.328110,228.950531 82.380653,233.082642 80.951385,238.896057 
	C77.096802,233.840668 74.783829,228.528610 73.808250,222.324036 
	C73.459984,219.582108 73.160431,217.149231 73.724068,214.308868 
z"/>
<path fill="#FDF7F1" opacity="1.000000" stroke="none" 
	d="
M131.921661,102.401321 
	C131.806763,99.496094 131.763474,96.990852 131.796631,94.009323 
	C134.196243,99.577072 132.787598,105.770142 132.257111,112.221603 
	C131.073212,111.332489 131.845291,110.084389 131.760773,108.392845 
	C131.574295,107.505424 131.512115,107.074226 131.695282,106.333954 
	C131.894333,104.959557 131.943802,103.880432 131.921661,102.401321 
z"/>
<path fill="#F51D0D" opacity="1.000000" stroke="none" 
	d="
M75.646652,204.059052 
	C76.515312,206.630844 76.953529,209.339310 74.376770,211.796555 
	C73.389488,211.783264 73.546852,211.070633 73.285736,210.205490 
	C72.807236,207.610306 74.832024,206.205704 75.646652,204.059052 
z"/>
<path fill="#F8810E" opacity="1.000000" stroke="none" 
	d="
M73.072433,210.331757 
	C73.448395,210.428452 73.751549,210.936127 74.111511,211.747253 
	C74.097366,212.466919 74.026413,212.883133 73.974861,213.615265 
	C73.977478,216.330719 73.960693,218.730286 73.882996,221.570831 
	C71.946602,218.372345 72.335655,214.567566 73.072433,210.331757 
z"/>
<path fill="#F8810E" opacity="1.000000" stroke="none" 
	d="
M100.171150,97.646133 
	C99.735649,99.899223 100.799713,102.173126 98.512054,103.860970 
	C97.777939,100.959778 100.318275,97.856621 97.980148,94.438606 
	C99.746445,94.391403 99.946342,95.824844 100.171150,97.646133 
z"/>
<path fill="#FDF7F1" opacity="1.000000" stroke="none" 
	d="
M95.887779,31.020147 
	C95.846405,31.356913 95.554237,31.403393 95.462212,31.519199 
	C94.983704,31.500854 94.742775,31.621214 94.540329,32.265945 
	C94.505966,33.099518 94.601219,33.702633 94.668755,34.610748 
	C94.550003,35.193832 94.458984,35.471909 94.117622,35.389488 
	C92.163322,34.030804 93.245171,32.410892 93.038605,31.090784 
	C92.930099,30.397303 92.683830,29.322227 93.787231,29.107779 
	C94.940994,28.883539 95.378006,29.927490 95.887779,31.020147 
z"/>
<path fill="#FDE3D0" opacity="1.000000" stroke="none" 
	d="
M129.864685,121.105942 
	C128.401001,119.526131 130.338882,117.922546 130.216644,115.808083 
	C130.582504,114.543877 130.927795,113.631630 131.615265,112.575226 
	C132.155899,115.440567 131.276215,118.190025 129.864685,121.105942 
z"/>
<path fill="#FDF7F1" opacity="1.000000" stroke="none" 
	d="
M48.362404,182.525253 
	C48.208717,183.438202 48.161095,183.897247 48.216064,184.689667 
	C48.365696,185.212448 48.412727,185.401840 48.469475,185.883911 
	C48.442535,186.368408 48.405876,186.560242 48.082634,186.812897 
	C46.224113,183.021835 47.114414,179.071899 47.712292,174.916138 
	C48.915424,177.110947 48.338207,179.609009 48.362404,182.525253 
z"/>
<path fill="#F8810E" opacity="1.000000" stroke="none" 
	d="
M135.623749,130.032898 
	C135.778397,133.162994 134.831238,136.058762 131.477509,137.981659 
	C132.532883,135.449661 133.923187,132.827240 135.623749,130.032898 
z"/>
<path fill="#FCC8B1" opacity="1.000000" stroke="none" 
	d="
M147.608856,160.627625 
	C146.792953,158.444214 147.613251,156.470428 149.512177,154.658340 
	C149.147537,156.525436 148.493378,158.469101 147.608856,160.627625 
z"/>
<path fill="#F84107" opacity="1.000000" stroke="none" 
	d="
M104.591568,168.064728 
	C108.183990,170.697449 103.653999,170.264328 103.202408,171.784302 
	C102.499924,172.145218 102.081032,172.030731 101.845871,171.266861 
	C102.728096,170.004105 103.518578,169.091766 104.591568,168.064728 
z"/>
<path fill="#FDE3D0" opacity="1.000000" stroke="none" 
	d="
M65.886108,214.273315 
	C64.168861,211.894409 65.333244,208.819061 65.077362,205.449677 
	C65.250999,204.876770 65.361694,204.735779 65.663910,204.783508 
	C65.882736,207.928146 65.910034,210.884079 65.886108,214.273315 
z"/>
<path fill="#F73909" opacity="1.000000" stroke="none" 
	d="
M101.663879,171.023346 
	C102.157295,171.173798 102.376976,171.431152 102.797661,171.844330 
	C102.396294,173.777451 101.212212,174.157562 99.271362,173.200424 
	C99.079910,171.439102 100.985901,172.268997 101.663879,171.023346 
z"/>
<path fill="#F51D0D" opacity="1.000000" stroke="none" 
	d="
M48.433228,182.623459 
	C48.265694,180.519272 48.275043,178.059387 48.189957,175.141449 
	C48.073677,174.377319 48.201073,174.158127 48.671677,173.983459 
	C48.953876,176.721970 49.323185,179.511475 48.433228,182.623459 
z"/>
<path fill="#FCC8B1" opacity="1.000000" stroke="none" 
	d="
M35.034325,182.353928 
	C37.015297,180.368378 35.417469,177.873245 36.626904,175.699356 
	C36.972820,177.874710 37.239254,180.336456 36.926750,182.722366 
	C36.644409,184.877945 35.783268,182.854279 35.034325,182.353928 
z"/>
<path fill="#FCC8B1" opacity="1.000000" stroke="none" 
	d="
M23.510412,142.174500 
	C23.875368,144.351471 23.889326,146.722595 23.842476,149.534088 
	C22.324068,147.541473 23.180429,144.919189 23.510412,142.174500 
z"/>
<path fill="#F84907" opacity="1.000000" stroke="none" 
	d="
M78.985443,135.028564 
	C77.836838,135.654770 76.705956,136.257324 75.253654,136.899506 
	C76.065056,135.688919 77.197876,134.438675 78.625015,133.066849 
	C78.919342,132.945267 79.054367,133.065994 79.120621,133.127747 
	C79.452759,133.567276 79.533188,133.984589 79.246964,134.697983 
	C79.041260,134.959747 79.003159,135.004913 78.985443,135.028564 
z"/>
<path fill="#F96407" opacity="1.000000" stroke="none" 
	d="
M138.095398,172.294388 
	C138.839767,171.712769 139.633713,171.420975 140.743561,171.087860 
	C141.172958,172.253922 140.564301,173.095978 139.369659,173.921570 
	C138.761383,173.561249 138.453186,173.072739 138.095398,172.294388 
z"/>
<path fill="#FCC8B1" opacity="1.000000" stroke="none" 
	d="
M151.913483,141.540405 
	C150.184631,140.108459 151.427032,137.826920 150.883469,135.383148 
	C150.811249,134.975769 151.021255,134.915024 151.425583,134.929749 
	C151.882141,136.998108 151.934372,139.051743 151.913483,141.540405 
z"/>
<path fill="#FCC8B1" opacity="1.000000" stroke="none" 
	d="
M26.939672,167.370605 
	C28.945044,167.932404 28.813965,170.043411 29.300070,172.128204 
	C27.752230,171.236832 26.849352,169.734192 26.939672,167.370605 
z"/>
<path fill="#F96407" opacity="1.000000" stroke="none" 
	d="
M141.349762,170.931854 
	C141.000107,169.350098 141.282654,167.823914 143.499573,167.088303 
	C143.296585,168.380615 142.917007,169.847183 141.349762,170.931854 
z"/>
<path fill="#FDF7F1" opacity="1.000000" stroke="none" 
	d="
M151.902908,134.551270 
	C151.829910,134.944489 151.519287,134.961136 151.366455,134.990051 
	C150.950165,133.415955 150.686707,131.812973 150.717285,130.024750 
	C152.897919,130.929459 151.649475,132.719650 151.902908,134.551270 
z"/>
<path fill="#F95307" opacity="1.000000" stroke="none" 
	d="
M62.469444,131.913269 
	C61.974705,130.359360 62.546192,129.269684 64.713989,129.071075 
	C64.295601,129.966599 63.519497,130.880997 62.469444,131.913269 
z"/>
<path fill="#FDF7F1" opacity="1.000000" stroke="none" 
	d="
M37.209778,175.255600 
	C36.167397,173.524719 36.930370,171.582169 37.508293,169.356842 
	C37.895248,171.064789 38.480846,173.057526 37.209778,175.255600 
z"/>
<path fill="#FCC8B1" opacity="1.000000" stroke="none" 
	d="
M96.662445,108.978966 
	C97.654778,109.843132 97.028473,110.714134 96.743851,111.942741 
	C96.321739,112.193550 95.996063,112.150055 95.417587,112.135895 
	C95.569458,111.093903 95.968132,110.067383 96.662445,108.978966 
z"/>
<path fill="#FDE3D0" opacity="1.000000" stroke="none" 
	d="
M47.939880,187.266479 
	C47.796055,186.873703 47.874882,186.419037 47.955132,186.202728 
	C48.233818,185.917099 48.432259,185.847763 48.628136,186.093719 
	C48.625572,186.409012 48.590115,186.443130 48.594917,186.467163 
	C48.808193,188.095139 49.016666,189.699066 49.107689,191.693176 
	C46.923634,190.970215 48.431805,189.124557 47.939880,187.266479 
z"/>
<path fill="#F73909" opacity="1.000000" stroke="none" 
	d="
M104.383438,209.918121 
	C104.146507,208.478348 104.857536,207.484650 106.716431,207.109711 
	C106.259697,207.993500 105.470421,208.916489 104.383438,209.918121 
z"/>
<path fill="#FDE3D0" opacity="1.000000" stroke="none" 
	d="
M24.023121,156.552979 
	C25.477293,157.105957 24.906944,158.731689 25.282181,160.424332 
	C22.765841,160.208389 24.476135,158.235931 24.023121,156.552979 
z"/>
<path fill="#FDE3D0" opacity="1.000000" stroke="none" 
	d="
M93.778397,39.739117 
	C94.873749,41.138290 94.258629,42.675777 93.380798,44.469208 
	C93.196289,43.146381 92.444809,41.500233 93.778397,39.739117 
z"/>
<path fill="#FCC8B1" opacity="1.000000" stroke="none" 
	d="
M128.873032,82.068481 
	C128.818298,82.391472 128.551620,82.367638 128.421616,82.398361 
	C128.096359,81.477089 127.901093,80.525093 127.871109,79.245277 
	C129.749741,79.413750 128.784790,80.754234 128.873032,82.068481 
z"/>
<path fill="#FDE3D0" opacity="1.000000" stroke="none" 
	d="
M131.022858,92.287796 
	C130.821915,91.163559 130.765671,90.321815 130.803436,89.066284 
	C132.730301,89.594315 131.792542,91.257393 131.923615,93.096992 
	C131.663788,93.226631 131.415695,92.898460 131.022858,92.287796 
z"/>
<path fill="#FCC8B1" opacity="1.000000" stroke="none" 
	d="
M93.925247,35.478004 
	C93.867287,35.028992 94.235916,34.848389 94.438477,34.882072 
	C95.075577,36.275421 95.078560,37.640896 94.373169,39.280357 
	C94.027878,38.341778 94.005547,37.134399 93.925247,35.478004 
z"/>
<path fill="#FCC8B1" opacity="1.000000" stroke="none" 
	d="
M66.251740,203.264313 
	C65.147804,202.067093 65.938606,200.768265 66.694122,199.242340 
	C66.766174,200.356491 67.558739,201.796371 66.251740,203.264313 
z"/>
<path fill="#F73909" opacity="1.000000" stroke="none" 
	d="
M102.247757,211.881653 
	C102.150391,211.040878 102.531853,210.386856 103.698593,210.121429 
	C103.512146,210.698029 103.030121,211.306564 102.247757,211.881653 
z"/>
<path fill="#F95307" opacity="1.000000" stroke="none" 
	d="
M59.358810,132.829498 
	C59.930454,132.765320 60.155613,132.837280 60.703659,133.055069 
	C60.521709,133.776352 60.016865,134.351791 59.216263,134.887054 
	C58.919689,134.446945 58.918869,134.046982 58.910355,133.347824 
	C58.902660,133.048630 59.012325,132.965637 59.358810,132.829498 
z"/>
<path fill="#FCC8B1" opacity="1.000000" stroke="none" 
	d="
M28.930321,123.008591 
	C28.987434,122.979515 28.627542,123.158745 28.607622,123.144463 
	C28.587702,123.130180 28.873207,123.037666 28.930321,123.008591 
z"/>
<path fill="#FCC8B1" opacity="1.000000" stroke="none" 
	d="
M26.905579,129.538452 
	C26.836609,129.920120 26.506002,129.940933 26.340576,129.947556 
	C26.211643,129.008926 26.248135,128.063675 26.632942,127.013107 
	C26.979021,127.657448 26.976786,128.407104 26.905579,129.538452 
z"/>
<path fill="#F73909" opacity="1.000000" stroke="none" 
	d="
M107.343964,206.958359 
	C107.216774,206.187958 107.590736,205.492889 108.790062,205.135834 
	C108.604424,205.671371 108.114174,206.267838 107.343964,206.958359 
z"/>
<path fill="#FDE3D0" opacity="1.000000" stroke="none" 
	d="
M118.967712,154.966888 
	C118.560715,154.958694 118.159729,154.974884 117.457840,154.986328 
	C117.548470,154.348007 117.940010,153.714417 118.850494,153.190948 
	C119.514488,153.709610 119.534485,154.122055 119.171722,154.751343 
	C118.935310,154.963608 118.973740,154.991272 118.967712,154.966888 
z"/>
<path fill="#F73608" opacity="1.000000" stroke="none" 
	d="
M82.682587,191.003693 
	C82.839531,191.702713 82.554039,192.408081 81.483902,192.896667 
	C81.606384,192.370621 82.006798,191.742844 82.682587,191.003693 
z"/>
<path fill="#F84907" opacity="1.000000" stroke="none" 
	d="
M74.665924,137.034302 
	C74.788773,137.790222 74.419449,138.487350 73.233841,138.870514 
	C73.417206,138.341339 73.903419,137.739670 74.665924,137.034302 
z"/>
<path fill="#FDE3D0" opacity="1.000000" stroke="none" 
	d="
M80.575966,63.068649 
	C82.199394,63.830223 80.941757,64.354263 80.231384,65.248032 
	C79.975357,64.723076 80.098625,63.969433 80.575966,63.068649 
z"/>
<path fill="#FDE3D0" opacity="1.000000" stroke="none" 
	d="
M82.452675,62.045601 
	C82.553215,62.870777 82.075790,63.397911 81.108994,63.254654 
	C81.054649,62.200199 81.479546,61.936665 82.452675,62.045601 
z"/>
<path fill="#FDE3D0" opacity="1.000000" stroke="none" 
	d="
M114.615448,157.028717 
	C115.701546,157.125778 115.873085,157.549286 115.216873,158.639496 
	C114.832458,159.054565 114.651245,159.051392 114.212769,158.960358 
	C114.076164,158.284943 114.196831,157.697403 114.615448,157.028717 
z"/>
<path fill="#FDE3D0" opacity="1.000000" stroke="none" 
	d="
M120.489975,152.032440 
	C120.787468,152.047882 120.860756,152.442566 120.904526,152.638458 
	C120.783882,153.161819 120.541855,153.417892 119.966034,153.654633 
	C119.563927,153.561966 119.428421,153.426788 119.089767,153.088760 
	C119.065247,152.210526 119.507660,151.931595 120.489975,152.032440 
z"/>
<path fill="#FCC8B1" opacity="1.000000" stroke="none" 
	d="
M97.786667,106.880814 
	C97.952217,107.442810 97.800964,108.165466 97.273300,108.949219 
	C97.087883,108.354042 97.278870,107.697762 97.786667,106.880814 
z"/>
<path fill="#FCC8B1" opacity="1.000000" stroke="none" 
	d="
M27.744011,124.931030 
	C27.909193,125.479858 27.766390,126.184036 27.260124,126.955231 
	C27.076448,126.376953 27.256237,125.731667 27.744011,124.931030 
z"/>
<path fill="#FDE3D0" opacity="1.000000" stroke="none" 
	d="
M47.610680,96.032784 
	C49.518719,96.701668 47.983112,97.181366 47.332378,97.863113 
	C47.042381,97.340195 47.173676,96.731140 47.610680,96.032784 
z"/>
<path fill="#FDE3D0" opacity="1.000000" stroke="none" 
	d="
M50.652954,93.962372 
	C50.801693,94.839622 50.140678,95.300438 49.147736,95.279877 
	C49.082470,94.117393 49.641590,93.959137 50.652954,93.962372 
z"/>
<path fill="#FDF7F1" opacity="1.000000" stroke="none" 
	d="
M61.630348,82.027939 
	C63.500618,82.645226 62.012596,83.115295 61.378216,83.781906 
	C61.095531,83.293785 61.217213,82.709000 61.630348,82.027939 
z"/>
<path fill="#FDF7F1" opacity="1.000000" stroke="none" 
	d="
M63.590179,80.982788 
	C63.941677,81.129967 63.984158,81.305336 64.016129,81.751183 
	C63.451023,82.258118 62.896412,82.494583 62.136139,82.326797 
	C62.087837,81.184738 62.600323,80.973137 63.590179,80.982788 
z"/>
<path fill="#FDE3D0" opacity="1.000000" stroke="none" 
	d="
M116.526382,155.997375 
	C116.782280,156.993988 116.199593,157.499695 115.115753,157.302643 
	C115.061493,156.167770 115.543716,155.945190 116.526382,155.997375 
z"/>
<path fill="#F85A05" opacity="1.000000" stroke="none" 
	d="
M65.590729,79.998619 
	C65.439041,80.280426 64.991600,80.554390 64.276833,80.866356 
	C64.143379,80.185287 64.661728,80.007179 65.590729,79.998619 
z"/>
<path fill="#F84907" opacity="1.000000" stroke="none" 
	d="
M78.260941,118.045319 
	C78.170280,117.795456 78.375412,117.670830 78.769501,117.786163 
	C78.872948,117.864311 78.471222,118.008728 78.260941,118.045319 
z"/>
<path fill="#F84107" opacity="1.000000" stroke="none" 
	d="
M106.680206,165.985947 
	C106.714104,166.150269 106.500381,166.408768 106.077881,166.810089 
	C106.056931,166.661987 106.244759,166.371048 106.680206,165.985947 
z"/>
<path fill="#FCC8B1" opacity="1.000000" stroke="none" 
	d="
M26.459145,166.274445 
	C26.659210,166.319183 26.722988,166.480621 26.921497,166.865082 
	C26.811771,166.855774 26.567312,166.623444 26.459145,166.274445 
z"/>
<path fill="#FDE3D0" opacity="1.000000" stroke="none" 
	d="
M48.683861,94.965500 
	C49.517796,95.474457 49.454273,95.963806 48.326473,96.167198 
	C48.067928,95.653831 48.240788,95.341797 48.683861,94.965500 
z"/>
<path fill="#FCC8B1" opacity="1.000000" stroke="none" 
	d="
M65.920029,204.590652 
	C65.855431,204.972229 65.497032,204.982346 65.318680,205.000046 
	C65.191948,204.563675 65.243584,204.109604 65.627884,203.545471 
	C65.968582,203.693314 65.976608,203.951202 65.920029,204.590652 
z"/>
<path fill="#F85A05" opacity="1.000000" stroke="none" 
	d="
M66.128120,79.289749 
	C66.390236,79.309593 66.403641,79.533043 66.122742,79.831192 
	C66.016228,79.901001 66.067207,79.488457 66.128120,79.289749 
z"/>
<path fill="#F84907" opacity="1.000000" stroke="none" 
	d="
M72.727585,138.997803 
	C72.800911,139.197632 72.588959,139.439514 72.134933,139.775299 
	C72.116394,139.628159 72.299553,139.351715 72.727585,138.997803 
z"/>
<path fill="#FDE3D0" opacity="1.000000" stroke="none" 
	d="
M49.116676,192.072662 
	C49.020405,192.105759 48.900009,192.303345 48.861744,192.515717 
	C48.845848,192.603943 49.005306,192.723770 49.367989,192.727142 
	C49.386459,192.620438 49.211369,192.493118 49.116676,192.072662 
z"/>
<path fill="#FCC8B1" opacity="1.000000" stroke="none" 
	d="
M128.023865,78.736992 
	C127.782433,78.844872 127.469414,78.700485 127.123642,78.262360 
	C127.378014,78.140656 127.665146,78.312691 128.023865,78.736992 
z"/>
<path fill="#F8810E" opacity="1.000000" stroke="none" 
	d="
M131.700562,106.200806 
	C131.875732,106.463867 131.906601,106.889069 131.834824,107.618546 
	C131.289520,107.446167 131.185715,106.931297 131.700562,106.200806 
z"/>
<path fill="#F73E06" opacity="1.000000" stroke="none" 
	d="
M79.371475,134.966705 
	C79.061447,134.564392 79.081635,134.169037 79.144348,133.481598 
	C80.194275,133.247101 81.752258,132.504486 81.932175,133.991608 
	C82.079597,135.210129 80.552635,134.811157 79.371475,134.966705 
z"/>
<path fill="#F73E06" opacity="1.000000" stroke="none" 
	d="
M94.000870,164.001266 
	C94.001747,164.002533 93.850845,164.238617 93.850845,164.238617 
	C93.850845,164.238617 93.865089,164.070282 93.931320,164.034302 
	C93.997543,163.998306 94.000000,164.000000 94.000870,164.001266 
z"/>
<path fill="#F51D0D" opacity="1.000000" stroke="none" 
	d="
M48.634171,186.167023 
	C48.625572,186.409012 48.318047,186.214386 48.176712,186.100403 
	C48.075172,185.823700 48.114967,185.660965 48.236710,185.260635 
	C48.501190,185.296936 48.609230,185.597595 48.634171,186.167023 
z"/>
<path fill="#F73B07" opacity="1.000000" stroke="none" 
	d="
M59.630688,132.636795 
	C59.705299,132.693359 59.419701,132.813095 59.270348,132.847229 
	C59.201679,132.676865 59.346706,132.576492 59.630688,132.636795 
z"/>
<path fill="#F95305" opacity="1.000000" stroke="none" 
	d="
M110.234726,169.014465 
	C109.839050,169.336868 109.451973,169.485138 109.058868,169.503326 
	C108.978661,169.507034 108.718536,168.910370 108.810188,168.781174 
	C109.249519,168.161880 109.768517,168.183945 110.234726,169.014465 
z"/>
<path fill="#FA7503" opacity="1.000000" stroke="none" 
	d="
M113.999008,60.998600 
	C113.998009,60.997200 114.149719,60.758080 114.149719,60.758080 
	C114.149719,60.758080 114.136833,60.929817 114.069839,60.965897 
	C114.002838,61.001972 114.000000,61.000000 113.999008,60.998600 
z"/>
<path fill="#F95305" opacity="1.000000" stroke="none" 
	d="
M119.567177,153.907639 
	C119.960205,153.478912 120.220970,153.260651 120.715012,152.938354 
	C120.959236,153.026352 120.970161,153.218369 121.004196,153.697845 
	C120.524895,154.279968 120.022491,154.574661 119.227707,154.916473 
	C119.012688,154.629089 119.179214,154.347260 119.567177,153.907639 
z"/>
<path fill="#F96407" opacity="1.000000" stroke="none" 
	d="
M136.162689,171.200073 
	C136.283951,171.183792 136.510117,171.383072 136.842010,171.796875 
	C136.720139,171.814011 136.493439,171.615433 136.162689,171.200073 
z"/>
<path fill="#F63107" opacity="1.000000" stroke="none" 
	d="
M38.617855,156.960709 
	C38.856361,156.796494 39.090614,156.788086 39.324863,156.779694 
	C39.321049,156.911804 39.317234,157.043915 39.313419,157.176025 
	C39.080147,157.156189 38.846870,157.136368 38.617855,156.960709 
z"/>
<path fill="#F96407" opacity="1.000000" stroke="none" 
	d="
M138.039520,167.624649 
	C138.200958,167.859482 138.209091,168.090027 138.217239,168.320557 
	C138.087250,168.316696 137.957275,168.312820 137.827286,168.308960 
	C137.846924,168.079407 137.866577,167.849884 138.039520,167.624649 
z"/>
<path fill="#F97F09" opacity="1.000000" stroke="none" 
	d="
M94.654175,32.285069 
	C94.271820,31.882944 93.495255,30.975746 95.203659,31.385750 
	C95.212677,31.781248 95.055161,31.927488 94.654175,32.285069 
z"/>
</svg>